<?xml version="1.0" encoding="UTF-8"?>
<!DOCTYPE svg PUBLIC "-//W3C//DTD SVG 1.1//EN" "http://www.w3.org/Graphics/SVG/1.1/DTD/svg11.dtd">
<!-- Creator: CorelDRAW 2020 (64-Bit) -->
<svg xmlns="http://www.w3.org/2000/svg" xml:space="preserve" width="64.5549mm" height="101.728mm" version="1.1" style="shape-rendering:geometricPrecision; text-rendering:geometricPrecision; image-rendering:optimizeQuality; fill-rule:evenodd; clip-rule:evenodd"
viewBox="0 0 43977.79 69301.55"
 xmlns:xlink="http://www.w3.org/1999/xlink"
 xmlns:xodm="http://www.corel.com/coreldraw/odm/2003">
 <defs>
  <style type="text/css">
   <![CDATA[
    .fil0 {fill:#FEFEFE}
   ]]>
  </style>
 </defs>
 <g id="Capa_x0020_1">
  <metadata id="CorelCorpID_0Corel-Layer"/>
  <path class="fil0" d="M27828.57 32996.03c0,15104.32 -11284.3,27898.33 -26248.35,29760.11 -987.74,123.1 -1689.08,1023.44 -1566.19,2011.18 113.56,912.39 890.05,1580.22 1786.43,1580.22 74.26,0 149.26,-4.5 224.74,-13.9 3438.59,-427.89 6702.99,-1371.49 9721.25,-2746.24 2059.68,3525.65 5864.85,5714.16 9943.47,5714.16 4094.29,0 7913.56,-2204.92 9967.79,-5754.76 323.18,-558.55 323.18,-1247.16 0,-1805.71 -1950.61,-3370.6 -5493.57,-5527.43 -9351.54,-5736.37 1371.49,-1460.52 2612.65,-3041.83 3706.39,-4725.53 1943.39,1354.52 4258.88,2080.05 6612.52,2080.05 988.49,0 1983.45,-127.6 2959.81,-389.13 3954.63,-1059.47 7073.24,-4177.95 8138.65,-8138.3 167.79,-623.14 -10.63,-1288.24 -467.2,-1744.06 -2902.72,-2896.59 -7162.62,-4038.43 -11117.39,-2978.2 -547.79,146.81 -1078.62,334.42 -1591.05,556.85 426.12,-1816.13 702.57,-3686.02 819.95,-5594.67 362.29,34.27 724.78,51.71 1086.52,51.71 3019.49,0 5975.55,-1185.85 8156.49,-3366.99 2894.96,-2895.09 4036.59,-7154.79 2979.09,-11117.33 -166.36,-623.48 -653.38,-1110.5 -1276.86,-1276.86 -3961.99,-1056.82 -8222.3,84.34 -11117.39,2979.09 -400.5,400.5 -766.06,828.05 -1098.44,1276.31 -454.6,-1569.39 -1020.37,-3105.12 -1698.62,-4590.31 2977.32,-1444.86 5240.15,-4129.24 6111.26,-7380.35 1059.68,-3954.77 -81.82,-8214.74 -2978.55,-11117.6 -455.69,-456.57 -1120.58,-635.4 -1744.06,-467.2 -3960.36,1065.47 -7078.83,4183.87 -8138.51,8138.51 -1033.93,3859.06 28.82,8008.53 2772.94,10904.16 2228.02,4256.36 3406.84,9053.15 3406.84,13891.16z"/>
 </g>
</svg>
