<?xml version="1.0" encoding="UTF-8"?>
<!DOCTYPE svg PUBLIC "-//W3C//DTD SVG 1.1//EN" "http://www.w3.org/Graphics/SVG/1.1/DTD/svg11.dtd">
<!-- Creator: CorelDRAW 2020 (64-Bit) -->
<svg xmlns="http://www.w3.org/2000/svg" xml:space="preserve" width="64.5544mm" height="101.728mm" version="1.1" style="shape-rendering:geometricPrecision; text-rendering:geometricPrecision; image-rendering:optimizeQuality; fill-rule:evenodd; clip-rule:evenodd"
viewBox="0 0 3149.12 4962.53"
 xmlns:xlink="http://www.w3.org/1999/xlink"
 xmlns:xodm="http://www.corel.com/coreldraw/odm/2003">
 <defs>
  <style type="text/css">
   <![CDATA[
    .fil0 {fill:#FEFEFE}
   ]]>
  </style>
 </defs>
 <g id="Capa_x0020_1">
  <metadata id="CorelCorpID_0Corel-Layer"/>
  <path class="fil0" d="M3035.98 4493.8c-1071.53,-133.32 -1879.58,-1049.47 -1879.58,-2131.05 0,-346.44 84.42,-689.92 243.96,-994.71 196.5,-207.35 272.6,-504.47 198.56,-780.82 -75.88,-283.18 -299.2,-506.48 -582.78,-582.78 -44.61,-12.02 -92.25,0.76 -124.89,33.45 -207.43,207.86 -289.17,512.9 -213.29,796.12 62.38,232.78 224.41,425.02 437.61,528.48 -48.57,106.34 -89.09,216.32 -121.63,328.7 -23.79,-32.11 -49.98,-62.71 -78.66,-91.39 -207.31,-207.3 -512.34,-289.05 -796.09,-213.33 -44.65,11.91 -79.52,46.79 -91.43,91.43 -75.71,283.73 6.04,588.77 213.33,796.08 156.19,156.2 367.82,241.1 584.07,241.1 25.89,0 51.86,-1.25 77.8,-3.7 8.4,136.67 28.2,270.58 58.71,400.62 -36.69,-15.93 -74.72,-29.36 -113.93,-39.87 -283.15,-75.91 -588.22,5.83 -796.1,213.29 -32.69,32.63 -45.46,80.27 -33.45,124.89 76.3,283.61 299.61,506.9 582.79,582.76 69.93,18.74 141.15,27.86 211.94,27.86 168.53,-0.01 334.33,-51.96 473.49,-148.96 78.33,120.57 167.21,233.81 265.42,338.39 -276.26,14.96 -529.96,169.41 -669.64,410.77 -23.14,40 -23.14,89.31 0,129.3 147.09,254.18 420.59,412.08 713.77,412.08 292.05,0 564.52,-156.72 712.03,-409.18 216.13,98.44 449.89,166.02 696.11,196.65 5.41,0.67 10.78,1 16.09,1 64.17,0 119.79,-47.82 127.92,-113.16 8.81,-70.75 -41.41,-135.22 -112.14,-144.04z"/>
 </g>
</svg>
