<?xml version="1.0" encoding="UTF-8"?>
<!DOCTYPE svg PUBLIC "-//W3C//DTD SVG 1.1//EN" "http://www.w3.org/Graphics/SVG/1.1/DTD/svg11.dtd">
<!-- Creator: CorelDRAW 2020 (64-Bit) -->
<svg xmlns="http://www.w3.org/2000/svg" xml:space="preserve" width="27.0932mm" height="25.4mm" version="1.1" style="shape-rendering:geometricPrecision; text-rendering:geometricPrecision; image-rendering:optimizeQuality; fill-rule:evenodd; clip-rule:evenodd"
viewBox="0 0 83.1 77.9"
 xmlns:xlink="http://www.w3.org/1999/xlink"
 xmlns:xodm="http://www.corel.com/coreldraw/odm/2003">
 <defs>
  <style type="text/css">
   <![CDATA[
    .fil0 {fill:#FEFEFE}
   ]]>
  </style>
 </defs>
 <g id="Capa_x0020_1">
  <metadata id="CorelCorpID_0Corel-Layer"/>
  <path class="fil0" d="M32.83 67.91c-0,1.27 -0.01,2.54 -0.01,3.81 -0.01,5 4.77,6.17 8.85,6.18 4.08,-0.01 8.85,-1.18 8.85,-6.18 -0,-1.27 -0.01,-2.54 -0.01,-3.81 -5.04,3.45 -12.64,3.45 -17.68,0zm17.57 -1.21l0 -42.17c7.79,-6.47 17.85,-9.52 28,-9.9 2.56,-0.1 4.66,1.89 4.66,4.4l0.04 33.28c0,2.37 -1.91,4.32 -4.32,4.41 -10.35,0.37 -20.06,4.03 -28.38,9.98zm15.78 -39.6c-2.11,0.77 -4.14,1.73 -6.03,2.92l0.11 20.13 0.15 -0.05c3.71,-1.32 7.56,-2.29 11.52,-2.87 0.55,-0.05 0.89,-0.52 0.89,-0.91l-0.02 -18.51c-0.02,-1.25 -1.06,-2.28 -2.16,-2.03 -1.52,0.35 -3.01,0.79 -4.47,1.32zm-33.47 39.33l0 -42.17c-7.79,-6.47 -17.85,-9.52 -28,-9.9 -2.56,-0.1 -4.66,1.89 -4.66,4.4l-0.04 33.28c-0,2.37 1.91,4.32 4.32,4.41 10.35,0.37 20.06,4.03 28.38,9.98zm-15.78 -39.6c2.11,0.77 4.14,1.73 6.03,2.92l-0.11 20.13 -0.15 -0.05c-3.71,-1.32 -7.56,-2.29 -11.52,-2.87 -0.55,-0.05 -0.89,-0.52 -0.89,-0.91l0.02 -18.51c0.02,-1.25 1.06,-2.28 2.16,-2.03 1.52,0.35 3.01,0.79 4.47,1.32zm26.09 -6.96l0 44.41c0,1.91 -2.92,1.91 -2.92,0l0 -44.41c0,-1.91 2.92,-1.91 2.92,0zm-7.58 -9.67c0.17,-1.24 1.72,-3.81 2.32,-5.05 0.92,-1.89 1.94,-3.75 2.63,-4.6 0.35,-0.43 0.76,-0.58 1.17,-0.55 0.41,-0.03 0.82,0.12 1.17,0.55 0.69,0.85 1.71,2.71 2.63,4.6 0.6,1.23 2.15,3.8 2.32,5.05 -3.5,1.23 -8.93,1.23 -12.24,0zm14.46 4.52l-1.34 -3.35c1.81,-2.5 9.04,-9.89 11.51,-10.72 2.31,-0.77 3.34,1.04 3.4,2.32l0.07 1.6c-5.12,3.22 -9.28,6.28 -13.64,10.15zm20.67 -9.37c2.42,-0.42 4.35,1.57 4.37,3.22l0.04 3.69c-8.58,1.14 -18.33,4.22 -24.65,10.26l0.03 -5.28c6.11,-5 12.62,-9.38 20.2,-11.88zm-37.35 9.37l1.34 -3.35c-1.81,-2.5 -9.04,-9.89 -11.51,-10.72 -2.31,-0.77 -3.34,1.04 -3.4,2.32l-0.07 1.6c5.12,3.22 9.28,6.28 13.64,10.15zm-20.67 -9.37c-2.42,-0.42 -4.35,1.57 -4.37,3.22l-0.04 3.69c8.58,1.14 18.33,4.22 24.65,10.26l-0.03 -5.28c-6.11,-5 -12.62,-9.38 -20.2,-11.88z"/>
 </g>
</svg>
