<svg width="512" height="512" xmlns="http://www.w3.org/2000/svg">
 <defs>
  <linearGradient y2="0" x2="1" y1="0" x1="0" id="svg_31">
   <stop offset="0.007813" stop-color="#5c74eb"/>
   <stop offset="1" stop-color="#ab65ef"/>
  </linearGradient>
 </defs>
 <g>
  <title>background</title>
  <rect fill="none" id="canvas_background" height="402" width="582" y="-1" x="-1"/>
 </g>
 <g>
  <title>Layer 1</title>
  <circle transform="rotate(-45 254.99999999999991,255.99999999999994) " id="svg_1" fill="url(#svg_31)" r="256" cy="256" cx="255"/>
  <path fill-opacity="0.2" id="svg_2" fill="#000000" d="m511.176,278.419c-11.374,130.885 -121.159,233.581 -255.011,233.581c-3.132,0 -6.264,0 -9.396,-0.165l-121.159,-121.159l219.735,-278.089l165.831,165.832z"/>
  <path id="svg_3" fill="#FFD630" d="m136.984,106.982c68.904,0 125.28,0 194.678,0c10.55,0 19.122,8.572 19.122,19.122l0,114.071l0,27.034l0,95.938l0,8.242c0,12.858 -10.385,23.243 -23.243,23.243l-190.557,0c-10.55,0 -19.122,-8.572 -19.122,-19.122l0,-249.406c0,-10.55 8.573,-19.122 19.122,-19.122z"/>
  <rect id="svg_4" fill="#F7F7F8" height="265.069" width="208.195" y="118.191" x="130.222"/>
  <g id="svg_5">
   <circle id="svg_6" fill="#E84F4F" r="65.612" cy="332.492" cx="369.737"/>
   <path id="svg_7" fill="#E84F4F" d="m147.204,139.951l26.869,0l0,30.99l-26.869,0l0,-30.99zm0,166.491l26.869,0l0,30.99l-26.869,0l0,-30.99zm0,-55.552l26.869,0l0,30.99l-26.869,0l0,-30.99zm0,-55.552l26.869,0l0,30.99l-26.869,0l0,-30.99z"/>
  </g>
  <path id="svg_8" fill="#999999" d="m186.766,151.325l91.817,0l0,8.078l-91.817,0l0,-8.078l0,0zm0,166.491l91.817,0l0,8.078l-91.817,0l0,-8.078l0,0zm0,-55.552l91.817,0l0,8.078l-91.817,0l0,-8.078l0,0zm0,-55.552l91.817,0l0,8.078l-91.817,0l0,-8.078l0,0z"/>
  <circle id="svg_9" fill="#FFD630" r="55.392" cy="332.492" cx="369.737"/>
  <path id="svg_10" fill="#FFFFFF" d="m322.926,334.3l17.639,-1.978l19.122,16.979c0,0 9.232,-38.573 52.42,-47.64c-21.1,11.374 -34.122,33.958 -42.859,65.113c-2.143,7.912 -7.912,5.769 -9.726,3.461c-2.967,-3.792 -22.748,-26.375 -36.595,-36.101l0,0.166l-0.001,0z"/>
  <path id="svg_11" fill="#E84F4F" d="m215.943,90.828l2.967,0c-0.824,-1.318 -1.318,-2.967 -1.318,-4.615l0,-9.891c0,-5.44 4.946,-9.89 11.044,-9.89l11.374,0c6.099,0 11.044,4.451 11.044,9.89l0,9.89c0,1.649 -0.494,3.132 -1.319,4.615l2.967,0c20.276,0 36.759,15.001 36.759,33.133l0,0l-110.442,0l0,0c0,-18.297 16.649,-33.133 36.759,-33.133l0.165,0l0,0.001z"/>
  <path id="svg_12" fill="#C94545" d="m234.406,66.431l5.769,0c6.099,0 11.044,4.451 11.044,9.89l0,9.89c0,1.649 -0.494,3.132 -1.319,4.615l2.967,0c20.276,0 36.759,15.001 36.759,33.133l0,0l-55.222,0l0.002,-57.528l0,0z"/>
  <g id="svg_13"/>
  <g id="svg_14"/>
  <g id="svg_15"/>
  <g id="svg_16"/>
  <g id="svg_17"/>
  <g id="svg_18"/>
  <g id="svg_19"/>
  <g id="svg_20"/>
  <g id="svg_21"/>
  <g id="svg_22"/>
  <g id="svg_23"/>
  <g id="svg_24"/>
  <g id="svg_25"/>
  <g id="svg_26"/>
  <g id="svg_27"/>
 </g>
</svg>