<?xml version="1.0" encoding="UTF-8"?>
<!DOCTYPE svg PUBLIC "-//W3C//DTD SVG 1.1//EN" "http://www.w3.org/Graphics/SVG/1.1/DTD/svg11.dtd">
<!-- Creator: CorelDRAW 2020 (64-Bit) -->
<svg xmlns="http://www.w3.org/2000/svg" xml:space="preserve" width="46.8008mm" height="32.1734mm" version="1.1" style="shape-rendering:geometricPrecision; text-rendering:geometricPrecision; image-rendering:optimizeQuality; fill-rule:evenodd; clip-rule:evenodd"
viewBox="0 0 333.55 229.3"
 xmlns:xlink="http://www.w3.org/1999/xlink"
 xmlns:xodm="http://www.corel.com/coreldraw/odm/2003">
 <defs>
  <style type="text/css">
   <![CDATA[
    .fil0 {fill:#5F10E5}
   ]]>
  </style>
 </defs>
 <g id="Capa_x0020_1">
  <metadata id="CorelCorpID_0Corel-Layer"/>
  <path class="fil0" d="M147.75 208.49c0,2.65 -0.02,5.29 -0.02,7.94 -0.02,10.42 9.94,12.85 18.44,12.88 8.5,-0.02 18.44,-2.46 18.44,-12.88 0,-2.65 -0.02,-5.29 -0.02,-7.94 -10.5,7.19 -26.33,7.19 -36.83,0zm-83.92 -71.94c4.81,5.71 7.21,12.1 7.21,19.2 -0.16,8.15 -2.95,14.98 -8.38,20.48 -5.42,5.5 -12,8.25 -19.75,8.25l-32.16 0c-5.71,0 -9.05,-1.55 -10.03,-4.65 -0.49,-1.39 -0.73,-3.5 -0.73,-6.36l0 -67.86c0,-1.96 0.06,-3.38 0.18,-4.28 0.12,-0.9 0.51,-1.96 1.16,-3.18 1.14,-2.2 4.32,-3.3 9.54,-3.3l30.81 0c7.5,0 13.78,2.61 18.83,7.83 5.3,5.3 7.95,11.66 7.95,19.07 0,5.38 -1.55,10.31 -4.65,14.79zm239.16 3.06c12.47,11.98 21.32,20.99 26.53,27.02 2.69,3.02 4.04,5.56 4.04,7.64 0,2.08 -1.63,4.52 -4.89,7.34 -3.26,2.81 -5.93,4.22 -8.01,4.22 -2.08,0 -4.58,-1.71 -7.52,-5.14l-26.9 -30.69 0 23.84c0,1.96 -0.06,3.38 -0.18,4.28 -0.12,0.9 -0.51,1.96 -1.16,3.18 -1.14,2.2 -4.32,3.3 -9.54,3.3 -5.71,0 -9.05,-1.55 -10.03,-4.65 -0.49,-1.3 -0.73,-3.38 -0.73,-6.24l0 -67.98c0,-1.87 0.06,-3.28 0.18,-4.22 0.12,-0.94 0.51,-2.02 1.16,-3.24 1.14,-2.2 4.32,-3.3 9.54,-3.3 5.71,0 9.09,1.51 10.15,4.52 0.41,1.39 0.61,3.51 0.61,6.36l0 23.35c11.09,-12.47 20.05,-22.7 26.9,-30.69 2.85,-3.34 5.34,-5.01 7.46,-5.01 2.12,0 4.81,1.41 8.07,4.22 3.26,2.81 4.89,5.26 4.89,7.34 0,2.08 -1.22,4.54 -3.67,7.4 -4.73,5.46 -12.06,12.96 -22.01,22.5l-4.89 4.65zm-253.59 14.92c0,-1.96 -0.22,-3.51 -0.67,-4.65 -0.45,-1.14 -1.2,-1.96 -2.26,-2.45 -1.63,-0.65 -3.91,-0.98 -6.85,-0.98 -2.93,0 -5.14,-0.57 -6.6,-1.71 -1.47,-1.14 -2.2,-3.48 -2.2,-7.03 0,-3.55 0.75,-5.89 2.26,-7.03 1.51,-1.14 4.01,-1.71 7.52,-1.71 3.26,0 5.22,-0.86 5.87,-2.57 0.24,-0.9 0.37,-2.36 0.37,-4.4 0,-2.04 -0.67,-3.46 -2.02,-4.28 -1.34,-0.82 -3.36,-1.22 -6.05,-1.22l-17.12 0 0 46.34 20.05 0c5.14,0 7.7,-2.77 7.7,-8.31zm63.54 -150.68l19.9 41.13c0.84,1.67 1.25,2.92 1.25,3.76 0,1.77 -1.43,3.37 -4.28,4.79 -1.67,0.84 -2.98,1.25 -3.94,1.25 -0.96,0 -1.74,-0.22 -2.36,-0.66 -0.61,-0.44 -1.06,-0.91 -1.33,-1.4 -0.27,-0.49 -0.65,-1.23 -1.14,-2.21l-3.83 -7.96 -20.42 0 -3.83 7.96c-0.49,0.98 -0.87,1.69 -1.14,2.14 -0.27,0.44 -0.71,0.9 -1.33,1.36 -0.61,0.47 -1.4,0.7 -2.36,0.7 -0.96,0 -2.27,-0.42 -3.94,-1.25 -2.85,-1.38 -4.28,-2.95 -4.28,-4.72 0,-0.84 0.42,-2.09 1.25,-3.76l19.9 -41.2c0.54,-1.13 1.36,-2.04 2.47,-2.73 1.11,-0.69 2.27,-1.03 3.5,-1.03 2.65,0 4.62,1.28 5.9,3.83zm-5.97 17.69l-4.86 10.1 9.8 0 -4.94 -10.1zm57.57 -5.9c0.93,0.3 1.71,0.8 2.32,1.51 0.61,0.71 0.92,1.85 0.92,3.43 0,1.57 -0.47,3.29 -1.4,5.16 -0.93,1.87 -2.28,2.8 -4.05,2.8 -0.89,0 -1.73,-0.2 -2.54,-0.59 -0.81,-0.39 -1.88,-0.59 -3.21,-0.59 -1.33,0 -2.57,0.47 -3.72,1.4 -1.15,0.93 -1.73,2.06 -1.73,3.39l0 15.48c0,1.13 -0.04,1.98 -0.11,2.54 -0.07,0.57 -0.31,1.22 -0.7,1.95 -0.74,1.28 -2.65,1.92 -5.75,1.92 -2.36,0 -4.05,-0.42 -5.09,-1.25 -0.79,-0.69 -1.23,-1.74 -1.33,-3.17 0,-0.49 0,-1.2 0,-2.14l0 -25.87c0,-1.13 0.04,-1.98 0.11,-2.54 0.07,-0.57 0.28,-1.19 0.63,-1.88 0.69,-1.33 2.6,-1.99 5.75,-1.99 2.95,0 4.79,0.57 5.53,1.69 0.54,0.79 0.81,1.6 0.81,2.43 0.25,-0.34 0.6,-0.76 1.07,-1.25 0.47,-0.49 1.46,-1.16 2.98,-1.99 1.52,-0.84 2.86,-1.25 4.02,-1.25 1.15,0 2.13,0.06 2.91,0.18 0.79,0.12 1.65,0.33 2.58,0.63zm29.85 12.6l-4.79 -0.3 0 10.17c0,1.33 0.21,2.28 0.63,2.88 0.42,0.59 1.2,0.88 2.36,0.88 1.15,0 2.04,0.04 2.65,0.11 0.61,0.07 1.27,0.31 1.95,0.7 1.13,0.64 1.7,2.28 1.7,4.94 0,3.1 -0.69,4.99 -2.06,5.68 -0.74,0.34 -1.39,0.55 -1.95,0.63 -0.56,0.07 -1.39,0.11 -2.47,0.11 -5.11,0 -8.99,-1.15 -11.65,-3.46 -2.65,-2.31 -3.98,-6.22 -3.98,-11.72l0 -10.91c-0.93,0.15 -1.94,0.22 -3.02,0.22 -1.08,0 -1.98,-0.42 -2.69,-1.25 -0.71,-0.83 -1.07,-2.26 -1.07,-4.27 0,-2.01 0.12,-3.48 0.37,-4.39 0.25,-0.91 0.59,-1.56 1.03,-1.95 0.79,-0.64 1.77,-0.96 2.95,-0.96l2.43 0.3 0 -7.59c0,-1.13 0.04,-1.96 0.11,-2.51 0.07,-0.54 0.31,-1.13 0.7,-1.77 0.64,-1.23 2.53,-1.84 5.68,-1.84 3.34,0 5.33,0.91 5.97,2.73 0.25,0.79 0.37,2.04 0.37,3.76l0 7.22c2.16,-0.2 3.8,-0.3 4.9,-0.3 1.11,0 1.94,0.04 2.51,0.11 0.57,0.07 1.22,0.31 1.95,0.7 1.28,0.64 1.92,2.53 1.92,5.68 0,3.1 -0.66,4.99 -1.99,5.68 -0.74,0.34 -1.39,0.55 -1.95,0.63 -0.56,0.07 -1.41,0.11 -2.54,0.11zm21.96 -26.68c0.84,0.83 1.25,2.26 1.25,4.27l0 1.18c0,1.23 -0.05,2.14 -0.15,2.73 -0.34,4.32 -1.62,8.03 -3.83,11.13 -2.21,3.1 -5.01,4.64 -8.4,4.64 -0.34,0 -0.65,-0.26 -0.92,-0.77 -0.27,-0.52 -0.41,-1.19 -0.41,-2.03 0,-0.84 0.11,-1.49 0.33,-1.95 0.22,-0.47 0.47,-0.74 0.74,-0.81 0.27,-0.07 0.48,-0.12 0.63,-0.15 0.15,-0.02 0.42,-0.15 0.81,-0.37 0.39,-0.22 0.74,-0.53 1.03,-0.92 0.79,-1.03 1.23,-2.63 1.33,-4.79 -1.67,-0.25 -2.91,-0.79 -3.72,-1.62 -0.81,-0.84 -1.22,-2.6 -1.22,-5.31 0,-1.97 0.25,-3.43 0.74,-4.39 0.49,-0.96 1.24,-1.6 2.25,-1.92 1.01,-0.32 2.57,-0.48 4.68,-0.48 2.11,0 3.73,0.52 4.86,1.55zm6.34 49.01c-0.93,-0.59 -1.4,-1.52 -1.4,-2.8 0,-1.28 0.93,-3.22 2.8,-5.82 0.54,-0.84 1.41,-1.25 2.62,-1.25 1.2,0 2.84,0.6 4.9,1.81 2.06,1.2 3.93,1.81 5.6,1.81 3,0 4.5,-0.59 4.5,-1.77 0,-0.93 -1.65,-1.62 -4.94,-2.06 -3.1,-0.44 -6.17,-1.6 -9.21,-3.46 -1.42,-0.88 -2.6,-2.27 -3.54,-4.17 -0.93,-1.89 -1.4,-4.14 -1.4,-6.74 0,-7.76 5.33,-11.65 15.99,-11.65 3.49,0 7.08,0.83 10.76,2.51 1.72,0.79 2.58,1.77 2.58,2.95 0,1.18 -0.54,2.63 -1.62,4.35 -1.08,1.72 -2.19,2.58 -3.32,2.58 -0.59,0 -1.68,-0.37 -3.28,-1.11 -1.6,-0.74 -3.33,-1.11 -5.2,-1.11 -2.9,0 -4.35,0.54 -4.35,1.62 0,1.47 1.67,2.43 5.01,2.88 3.24,0.34 6.39,1.28 9.43,2.8 1.42,0.69 2.62,1.88 3.57,3.57 0.96,1.7 1.44,3.82 1.44,6.38 0,2.56 -0.48,4.73 -1.44,6.52 -0.96,1.79 -2.3,3.13 -4.02,4.02 -3.15,1.52 -7.09,2.28 -11.83,2.28 -4.74,0 -9.3,-1.38 -13.67,-4.13zm-38.33 155.4l0 -87.85c16.23,-13.48 37.19,-19.83 58.33,-20.62 5.33,-0.21 9.71,3.94 9.71,9.17l0.08 69.33c0,4.94 -3.98,9 -9,9.19 -21.56,0.77 -41.79,8.4 -59.13,20.79l0 0zm32.87 -82.5c-4.4,1.6 -8.63,3.6 -12.56,6.08l0.23 41.94 0.31 -0.1c7.73,-2.75 15.75,-4.77 24,-5.98 1.15,-0.1 1.85,-1.08 1.85,-1.9l-0.04 -38.56c-0.04,-2.6 -2.21,-4.75 -4.5,-4.23 -3.17,0.73 -6.27,1.65 -9.31,2.75l0.02 0zm-69.73 81.94l0 -87.85c-16.23,-13.48 -37.19,-19.83 -58.33,-20.62 -5.33,-0.21 -9.71,3.94 -9.71,9.17l-0.08 69.33c0,4.94 3.98,9 9,9.19 21.56,0.77 41.79,8.4 59.13,20.79l-0 0zm-32.87 -82.5c4.4,1.6 8.63,3.6 12.56,6.08l-0.23 41.94 -0.31 -0.1c-7.73,-2.75 -15.75,-4.77 -24,-5.98 -1.15,-0.1 -1.86,-1.08 -1.86,-1.9l0.04 -38.56c0.04,-2.6 2.21,-4.75 4.5,-4.23 3.17,0.73 6.27,1.65 9.31,2.75l-0.02 -0zm54.35 -14.5l0 92.52c0,3.98 -6.08,3.98 -6.08,0l0 -92.52c0,-3.98 6.08,-3.98 6.08,0zm-15.79 -20.15c0.35,-2.58 3.58,-7.94 4.83,-10.52 1.92,-3.94 4.04,-7.81 5.48,-9.58 0.73,-0.9 1.58,-1.21 2.44,-1.15 0.85,-0.06 1.71,0.25 2.44,1.15 1.44,1.77 3.56,5.65 5.48,9.58 1.25,2.56 4.48,7.92 4.83,10.52 -7.29,2.56 -18.6,2.56 -25.5,0l-0 0zm30.13 9.42l-2.79 -6.98c3.77,-5.21 18.83,-20.6 23.98,-22.33 4.81,-1.6 6.96,2.17 7.08,4.83l0.15 3.33c-10.67,6.71 -19.33,13.08 -28.42,21.15l0 0zm43.06 -19.52c5.04,-0.87 9.06,3.27 9.1,6.71l0.08 7.69c-17.87,2.38 -38.19,8.79 -51.35,21.38l0.06 -11c12.73,-10.42 26.29,-19.54 42.08,-24.75l0.02 -0.02zm-77.81 19.52l2.79 -6.98c-3.77,-5.21 -18.83,-20.6 -23.98,-22.33 -4.81,-1.6 -6.96,2.17 -7.08,4.83l-0.15 3.33c10.67,6.71 19.33,13.08 28.42,21.15l-0 0zm-43.06 -19.52c-5.04,-0.87 -9.06,3.27 -9.1,6.71l-0.08 7.69c17.87,2.38 38.19,8.79 51.36,21.38l-0.06 -11c-12.73,-10.42 -26.29,-19.54 -42.08,-24.75l-0.02 -0.02z"/>
 </g>
</svg>
