<?xml version="1.0" encoding="UTF-8"?>
<!DOCTYPE svg PUBLIC "-//W3C//DTD SVG 1.1//EN" "http://www.w3.org/Graphics/SVG/1.1/DTD/svg11.dtd">
<!-- Creator: CorelDRAW 2020 (64-Bit) -->
<svg xmlns="http://www.w3.org/2000/svg" xml:space="preserve" width="47.8734mm" height="37.592mm" version="1.1" style="shape-rendering:geometricPrecision; text-rendering:geometricPrecision; image-rendering:optimizeQuality; fill-rule:evenodd; clip-rule:evenodd"
viewBox="0 0 4874.56 3827.69"
 xmlns:xlink="http://www.w3.org/1999/xlink"
 xmlns:xodm="http://www.corel.com/coreldraw/odm/2003">
 <defs>
  <style type="text/css">
   <![CDATA[
    .fil0 {fill:#FEFEFE}
   ]]>
  </style>
 </defs>
 <g id="Capa_x0020_1">
  <metadata id="CorelCorpID_0Corel-Layer"/>
  <path class="fil0" d="M932.75 2185.27c70.29,83.38 105.43,176.9 105.43,280.54 -2.39,119.12 -43.19,218.89 -122.4,299.3 -79.23,80.41 -175.41,120.61 -288.58,120.61l-469.95 0c-83.38,0 -132.23,-22.62 -146.51,-67.89 -7.16,-20.25 -10.73,-51.23 -10.73,-92.92l0 -991.7c0,-28.59 0.91,-49.43 2.69,-62.53 1.79,-13.1 7.44,-28.59 16.97,-46.46 16.68,-32.17 63.14,-48.25 139.37,-48.25l450.29 0c109.59,0 201.32,38.13 275.17,114.37 77.44,77.44 116.15,170.35 116.15,278.75 0,78.62 -22.62,150.69 -67.89,216.21zm481.25 -1929l-106.24 224.82 157.38 0 -48.95 -224.82 -2.19 0zm-50.34 -154.01l-35.61 -64.26c8.95,-6.96 17.31,-11.74 25.07,-14.53 29.84,-10.15 66.05,-15.12 108.24,-15.12 42.78,0 75.81,12.14 99.08,36.6 20.29,21.49 36.62,51.34 49.54,89.74 12.74,38.4 24.67,93.12 35.63,164.15 5.76,36.01 10.94,63.07 15.12,81.38 13.73,50.93 22.68,83.36 27.25,97.49 4.39,14.12 12.53,36.81 24.28,67.84 3.97,8.95 8.95,21.49 15.52,37.61 6.36,16.11 12.53,31.03 18.3,44.96 12.74,30.43 32.24,70.43 58.29,120.17 -32.62,22.88 -60.28,39.39 -82.76,49.55 -22.68,10.14 -43.18,15.12 -61.88,15.12 -23.08,0 -42.18,-4.38 -57.51,-13.33 -15.31,-8.96 -29.23,-23.29 -41.78,-42.58 -14.72,-26.46 -29.44,-62.48 -44.36,-107.84 -1.39,-4.38 -3.19,-9.74 -5.17,-16.52 -2.2,-6.57 -4.58,-13.74 -7.17,-21.48 -45.57,19.09 -81.17,28.45 -106.44,28.45 -14.53,0 -26.86,-0.41 -37.41,-1 -8.95,-0.79 -50.53,-1.99 -124.75,-3.58l-5.77 12.53c-21.28,44.77 -41.18,79.19 -59.88,102.87 -18.7,23.88 -40.19,40.59 -64.46,50.34 -24.27,9.74 -54.52,14.52 -91.13,14.52 -21.09,0 -36,-2.38 -44.96,-6.96 -8.95,-4.78 -13.33,-12.33 -13.33,-22.88 0,-12.74 21.29,-48.15 64.07,-106.05 15.12,-20.3 26.46,-36.21 33.83,-47.96 -40.6,-7.76 -60.88,-22.07 -60.88,-42.97 0,-17.12 16.31,-42.58 48.94,-76.2 15.53,-16.32 29.85,-26.67 43.39,-31.04 13.33,-4.58 36.6,-6.97 70.02,-7.36 31.05,-57.11 50.94,-93.32 59.5,-109.03 8.55,-15.73 19.49,-35.63 33.21,-59.3 13.54,-23.88 29.05,-51.12 46.36,-81.57 17.31,-30.44 40.39,-71.04 69.64,-121.77zm647.23 90.13l15.72 -39.6c-11.74,1.19 -23.67,2.79 -36.22,4.97 -7.76,1.41 -18.5,2.2 -32.02,2.2 -19.1,0 -28.65,-9.55 -28.65,-28.65 0,-8.16 2.38,-17.71 7.36,-28.86 4.78,-10.94 10.35,-19.49 16.52,-25.26 13.52,-12.94 41.98,-23.28 85.35,-31.44 43.39,-8.16 94.11,-12.33 152.41,-12.33 44.77,0 87.35,5.97 127.94,18.1 40.59,11.94 75.61,28.65 105.05,49.93 29.65,21.1 52.73,45.37 69.24,72.83 16.52,27.46 24.68,57.3 24.68,89.53 0,34.62 -7.17,66.86 -21.49,96.5 -14.52,29.84 -34.81,55.71 -61.28,78 -17.51,14.72 -33.83,26.07 -48.95,33.83 -15.12,7.76 -36.81,15.91 -65.27,24.47 7.36,13.53 13.93,24.08 19.51,31.44 5.76,7.35 15.12,17.7 28.45,31.04 35.01,31.43 85.15,60.09 150.41,85.75 3.19,1.39 7.17,2.98 11.75,4.57 -6.97,33.03 -13.53,57.1 -19.91,72.23 -6.17,15.12 -15.91,31.63 -29.05,49.54 -24.07,31.83 -53.12,47.75 -86.75,47.75 -18.69,0 -41.77,-6.96 -69.23,-20.7 -27.27,-13.72 -49.74,-30.04 -67.25,-48.55 -13.53,-16.11 -26.07,-32.82 -37.6,-50.73 -11.34,-17.91 -22.88,-38.2 -34.62,-60.89 -11.74,-22.88 -21.69,-44.96 -30.05,-66.46 -8.36,-21.68 -14.52,-40.58 -18.31,-56.89 -0.79,-2.98 -1.19,-7.57 -1.19,-13.34 0,-8.16 2.38,-14.52 6.96,-19.3 4.58,-4.57 13.14,-8.96 25.67,-12.74 17.31,-6.16 31.64,-13.14 42.98,-20.69 11.14,-7.56 25.47,-19.31 42.37,-35.21 19.51,-21.49 34.63,-46.37 45.77,-75.01 10.95,-28.46 16.52,-57.31 16.52,-86.56 0,-34.42 -7.96,-61.28 -23.67,-80.57 -15.92,-19.31 -40.99,-32.84 -75.82,-40.6 -33.43,121.58 -66.45,235.97 -99.28,343.22l-12.34 44.36c-20.09,69.84 -37.21,121.77 -50.93,155.39 -13.93,33.83 -27.65,57.51 -41.19,71.03 -13.53,13.53 -34.82,26.86 -63.47,40.19 -28.86,13.14 -51.34,19.7 -67.85,19.7 -31.83,0 -47.74,-17.71 -47.74,-53.32 0,-14.72 4.37,-40 13.14,-76.01 8.75,-36.01 22.28,-82.96 40.58,-141.06 18.11,-58.1 37.41,-114.79 57.31,-170.51 20.09,-55.51 41.58,-112.62 64.46,-171.31zm882.61 241.14l-5.97 25.07c-2,8.55 -3.58,15.71 -5.17,21.89 -1.6,5.96 -2.79,11.14 -3.78,15.71 -1,4.38 -2,8.96 -3.19,13.74 -28.05,119.57 -50.53,194.39 -67.65,224.43 -7.96,13.14 -19.5,25.07 -35.02,35.62 -49.15,31.83 -87.55,47.75 -115.6,47.75 -19.5,0 -35.81,-7.17 -49.34,-21.3 -13.33,-14.12 -20.1,-31.83 -20.1,-52.71 0,-38.2 16.71,-108.44 50.14,-211.11 10.15,-32.63 19.31,-61.08 27.65,-85.16 8.36,-24.07 18.51,-51.33 30.25,-81.57 11.94,-30.43 25.27,-62.67 40.38,-96.89 14.93,-34.22 25.47,-58.29 31.65,-72.43 -51.15,7.36 -100.49,11.15 -147.84,11.15 -47.75,0 -71.63,-16.72 -71.63,-50.15 0,-21.29 15.53,-48.35 46.55,-81.38 21.1,-21.49 40.4,-36.21 58.3,-44.57 17.9,-8.36 39.39,-12.53 64.66,-12.53 16.32,0 38.8,0.4 67.06,1.39 28.45,1 67.84,3.38 118.39,6.96l16.31 1.19 15.71 1.79c42.79,2.19 70.84,4.97 84.56,8.16 13.53,2.98 25.27,8.95 34.82,17.9 7.76,8.96 11.74,19.31 11.74,30.85 0,12.33 -2.39,25.07 -7.17,37.99 -4.97,13.14 -10.74,22.69 -17.71,28.86 -9.74,10.95 -36.81,19.9 -81.58,27.26 -3.97,0 -7.95,0.4 -12.33,1.19l-11.54 2.39c9.35,9.35 13.93,19.7 13.93,31.04 0,10.95 -5.58,34.62 -16.53,70.63 -3.57,8.95 -11.93,38.2 -25.46,87.94l-8.76 35.02 -5.77 23.88zm305.61 -181.66l-1.19 0c-5.77,0 -10.95,-2.38 -15.72,-6.95 -4.58,-4.78 -6.96,-9.75 -6.96,-15.13 0,-5.57 2.38,-11.93 6.96,-19.3 8.16,-13.53 12.14,-26.46 12.14,-38.6 0,-11.14 -2.59,-20.89 -7.76,-29.24 -5.38,-8.36 -13.93,-17.32 -25.86,-26.66 -11.15,-9.36 -18.51,-16.72 -22.09,-22.49 -3.38,-5.57 -5.17,-12.14 -5.17,-19.49 0,-10.15 4.78,-19.91 14.52,-29.65 11.34,-10.95 26.27,-21.1 44.57,-30.44 18.51,-9.35 32.24,-13.93 41.19,-13.93 13.33,0 25.86,4.78 37.61,14.52 11.92,9.75 21.28,22.89 28.25,39.41 6.96,16.52 10.54,33.21 10.54,49.93 0,36.01 -19.49,74.01 -58.49,113.61 -21.69,21.69 -39.2,33.22 -52.53,34.42zm324.91 187.23c-33.43,-33.83 -56.91,-63.87 -70.44,-90.13 -13.73,-26.06 -20.5,-54.12 -20.5,-84.16 0,-44.96 13.74,-87.35 40.99,-127.15 27.45,-39.59 64.27,-71.03 110.22,-94.31 45.96,-23.28 95.51,-35.02 148.23,-35.02 59.88,0 105.84,12.53 138.08,37.4 32.24,24.88 48.36,60.1 48.36,105.66 0,21.68 -5.77,44.36 -17.51,67.64 -11.55,23.48 -27.86,45.17 -48.35,65.46 -13.94,13.93 -27.06,24.67 -39,31.84 -12.15,7.16 -22.29,10.74 -30.44,10.74 -10.15,0 -15.12,-7.76 -15.12,-23.28 0,0.4 0.79,-5.77 2.39,-18.1 2.38,-18.32 3.57,-34.63 3.57,-48.96 0,-20.29 -2.98,-40.59 -8.95,-60.89 -6.17,-20.49 -13.94,-37.59 -23.48,-51.32 -9.55,-13.74 -18.5,-20.7 -27.06,-20.7 -4.38,0 -9.15,3.38 -14.71,9.95 -10.55,10.75 -18.7,24.27 -24.48,40.39 -5.77,16.12 -8.76,31.23 -8.76,45.17 0,17.3 2.59,33.62 7.57,48.55 5.17,14.92 13.92,30.24 26.45,45.76 12.34,15.52 28.86,32.43 49.55,51.13 32.63,29.44 57.9,55.31 75.61,77.39 17.7,22.28 30.64,44.17 38.79,66.26 8.16,21.88 12.14,45.76 12.14,71.43 0,44.96 -11.93,88.54 -35.62,130.53 -23.67,41.98 -55.11,75.8 -94.11,101.67 -39,25.86 -79.38,38.79 -120.96,38.79 -39.59,0 -78.2,-8.55 -116,-25.67 -37.6,-17.11 -73.03,-41.57 -106.06,-73.41 -34.22,-33.83 -51.33,-63.67 -51.33,-89.74 0,-15.91 7.56,-31.43 22.69,-46.55 15.52,-15.53 34.82,-28.65 57.51,-39.6 22.67,-10.95 41.77,-16.31 57.49,-16.31 8.76,0 16.52,2.19 22.69,6.76 6.17,4.38 11.74,11.93 16.52,22.69 4.97,10.74 9.74,25.26 14.33,43.57 7.36,26.07 14.12,45.37 20.49,58.1 6.17,12.53 14.93,25.08 26.07,37.6 11.74,11.74 24.07,17.51 36.81,17.51 15.53,0 27.86,-6.17 36.81,-18.31 8.95,-12.33 13.33,-29.05 13.33,-50.34 0,-33.43 -11.93,-66.85 -35.81,-100.27 -7.16,-11.34 -14.72,-21.29 -23.28,-30.05 -8.36,-8.76 -26.46,-25.66 -54.32,-50.74 -8.36,-6.95 -21.88,-19.3 -40.38,-37zm-913 964.12c-21.86,-86.04 -92.34,-280.9 -139.26,-367.62 -19.92,-17.28 -46.41,-28.41 -65.83,-4.58 -44.71,81.17 -113.92,270.07 -139.94,361.79 -0.74,3.7 -1.34,7.16 -1.79,10.41l346.83 0zm92.44 1928.6l-6.15 -1158.7 -0.97 -182.2 0 -0.06 -0.34 -63.85c14.35,-12.61 28.62,-24.43 42.89,-35.61 3.13,-2.91 6.42,-5.7 9.89,-8.4 230.16,-178.94 520.38,-264.16 810.74,-275.3 38.25,-1.48 71.71,11.27 99.3,37.8 27.6,26.52 41.65,59.45 41.7,97.73l1.11 1025.38c0.08,73.09 -57.74,133.13 -130.77,135.83 -234.85,8.63 -467.91,74.48 -651.27,213.55 -4.13,3.14 -8.38,6.02 -12.71,8.62 -65.53,51.58 -124.41,112.83 -174.35,184.46 -9.82,15.05 -19.46,30.34 -28.93,45.87l0 204.92c0,146.21 -119.62,265.82 -265.83,265.82 -146.22,0 -265.84,-119.61 -265.84,-265.82l0 -108.43 0 -91.18c0.27,-5.96 0.55,-11.96 0.81,-18.06 10.68,136.59 125.79,245.04 265.01,245.04 113.95,0 211.74,-72.63 249.35,-173.88 9.72,-26.18 15.43,-54.27 16.35,-83.52zm-532.52 25.12l6.28 -1183.82 0.97 -182.2 0 -0.06 0.34 -63.85c-14.79,-13 -29.55,-25.26 -44.28,-36.88 -2.71,-2.45 -5.54,-4.83 -8.49,-7.13 -230.16,-178.94 -520.38,-264.16 -810.74,-275.3 -38.25,-1.48 -71.71,11.27 -99.3,37.8 -27.6,26.52 -41.65,59.45 -41.7,97.73l-1.11 1025.38c-0.08,73.09 57.74,133.13 130.77,135.83 234.85,8.63 467.91,74.48 651.27,213.55 4.14,3.14 8.38,6.02 12.71,8.62 63.76,50.19 121.21,109.5 170.27,178.65 11.33,16.96 22.34,34.19 33.01,51.68zm-598.71 -1445.61c124.52,30.1 243.49,79.23 349.99,153.32 1.19,0.82 13.63,9.58 13.63,9.68l0 514.16 0 204.33c-56.67,-28.84 -115.02,-53.32 -174.64,-73.76 -1.68,-0.81 -3.24,-1.49 -4.67,-1.97 -74.58,-25.26 -151.2,-44.2 -229.06,-57.35 -65.89,-11.13 -113.18,-67.06 -113.18,-133.88l0 -480.55c0,-43.25 18.18,-80.48 52.3,-107.08 31.12,-24.26 67.61,-33.52 105.63,-26.92zm1730.08 0c-124.52,30.1 -243.49,79.23 -349.99,153.32 -1.19,0.82 -13.63,9.58 -13.63,9.68l0 514.16 0 204.33c56.87,-28.94 115.42,-53.49 175.27,-73.96 1.44,-0.74 2.8,-1.34 4.05,-1.76 74.58,-25.26 151.2,-44.2 229.06,-57.35 65.89,-11.13 113.18,-67.06 113.18,-133.88l0 -480.55c0,-43.25 -18.18,-80.48 -52.3,-107.08 -31.12,-24.26 -67.61,-33.52 -105.63,-26.92zm-865.04 134.96l0 0c-26.98,0 -49.05,22.07 -49.05,49.05l0 1275.11c0,26.97 22.06,49.04 49.05,49.04l0 0c26.98,0 49.05,-22.06 49.05,-49.04l0 -1275.11c0,-26.97 -22.06,-49.05 -49.05,-49.05zm264.55 -350.13c224.53,-185.13 413.3,-298.29 616.97,-366.17 74,-12.92 132.49,48.29 133.35,99.1l1.32 78.37c-270.45,56.36 -557.1,192.14 -752.78,380.73l1.14 -192.04zm-49.54 -185.77c58.46,-81.43 274.25,-301.1 345.83,-325.36 70.41,-23.87 102.13,31.98 103.86,71.57l2.15 49.25c-161.72,98 -270.1,178.48 -419.03,292.69l-32.81 -88.15zm-479.57 185.77c-224.53,-185.13 -413.3,-298.29 -616.97,-366.17 -74,-12.92 -132.49,48.29 -133.35,99.1l-1.32 78.37c270.45,56.36 557.1,192.14 752.78,380.73l-1.14 -192.04zm49.54 -185.77c-58.46,-81.43 -274.25,-301.1 -345.83,-325.36 -70.41,-23.87 -102.13,31.98 -103.86,71.57l-2.15 49.25c161.72,98 270.1,178.48 419.03,292.69l32.81 -88.15zm2205.58 719.53c182.26,175.12 311.5,306.75 387.75,394.9 39.3,44.08 58.97,81.3 58.97,111.68 0,30.37 -23.83,66.12 -71.48,107.21 -47.64,41.11 -86.66,61.65 -117.03,61.65 -30.38,0 -67.01,-25.02 -109.9,-75.05l-393.1 -448.49 0 348.43c0,28.59 -0.89,49.44 -2.68,62.54 -1.79,13.1 -7.45,28.59 -16.97,46.46 -16.68,32.17 -63.14,48.24 -139.38,48.24 -83.38,0 -132.23,-22.62 -146.51,-67.89 -7.16,-19.06 -10.73,-49.44 -10.73,-91.14l0 -993.49c0,-27.39 0.91,-47.95 2.69,-61.64 1.78,-13.71 7.44,-29.49 16.96,-47.36 16.68,-32.16 63.15,-48.24 139.38,-48.24 83.38,0 132.83,22.03 148.3,66.11 5.97,20.25 8.94,51.23 8.94,92.91l0 341.3c162.01,-182.26 293.04,-331.76 393.1,-448.51 41.7,-48.83 78.03,-73.26 109,-73.26 30.97,0 70.29,20.55 117.93,61.64 47.65,41.11 71.48,76.83 71.48,107.22 0,30.37 -17.87,66.41 -53.6,108.1 -69.1,79.82 -176.31,189.4 -321.65,328.78l-71.47 67.89zm-3705.95 218c0,-28.59 -3.27,-51.22 -9.83,-67.89 -6.56,-16.68 -17.57,-28.59 -33.06,-35.74 -23.82,-9.53 -57.17,-14.3 -100.06,-14.3 -42.89,0 -75.05,-8.34 -96.49,-25.02 -21.44,-16.68 -32.17,-50.92 -32.17,-102.75 0,-51.82 11.02,-86.07 33.05,-102.75 22.03,-16.68 58.67,-25.01 109.9,-25.01 47.64,0 76.23,-12.5 85.76,-37.52 3.57,-13.1 5.37,-34.56 5.37,-64.33 0,-29.78 -9.83,-50.63 -29.49,-62.54 -19.65,-11.91 -49.14,-17.87 -88.44,-17.87l-250.17 0 0 677.22 293.04 0c75.05,0 112.57,-40.49 112.57,-121.5z"/>
 </g>
</svg>
