<?xml version="1.0" encoding="UTF-8"?>
<!DOCTYPE svg PUBLIC "-//W3C//DTD SVG 1.1//EN" "http://www.w3.org/Graphics/SVG/1.1/DTD/svg11.dtd">
<!-- Creator: CorelDRAW 2020 (64-Bit) -->
<svg xmlns="http://www.w3.org/2000/svg" xml:space="preserve" width="46.2594mm" height="33.3281mm" version="1.1" style="shape-rendering:geometricPrecision; text-rendering:geometricPrecision; image-rendering:optimizeQuality; fill-rule:evenodd; clip-rule:evenodd"
viewBox="0 0 326.15 234.98"
 xmlns:xlink="http://www.w3.org/1999/xlink"
 xmlns:xodm="http://www.corel.com/coreldraw/odm/2003">
 <defs>
  <style type="text/css">
   <![CDATA[
    .fil0 {fill:#5F10E5}
   ]]>
  </style>
 </defs>
 <g id="Capa_x0020_1">
  <metadata id="CorelCorpID_0Corel-Layer"/>
  <path class="fil0" d="M62.41 133.51c4.7,5.58 7.05,11.84 7.05,18.77 -0.16,7.97 -2.89,14.65 -8.19,20.03 -5.3,5.38 -11.74,8.07 -19.31,8.07l-31.44 0c-5.58,0 -8.85,-1.51 -9.8,-4.54 -0.48,-1.35 -0.72,-3.43 -0.72,-6.22l0 -66.35c0,-1.91 0.06,-3.31 0.18,-4.18 0.12,-0.88 0.5,-1.91 1.14,-3.11 1.12,-2.15 4.22,-3.23 9.33,-3.23l30.13 0c7.33,0 13.47,2.55 18.41,7.65 5.18,5.18 7.77,11.4 7.77,18.65 0,5.26 -1.51,10.08 -4.54,14.47zm48.02 -129.76l19.46 40.22c0.82,1.63 1.23,2.86 1.23,3.68 0,1.73 -1.39,3.29 -4.18,4.68 -1.63,0.82 -2.92,1.23 -3.86,1.23 -0.94,0 -1.71,-0.22 -2.31,-0.65 -0.6,-0.43 -1.03,-0.89 -1.3,-1.37 -0.26,-0.48 -0.64,-1.2 -1.12,-2.16l-3.75 -7.78 -19.96 0 -3.75 7.78c-0.48,0.96 -0.85,1.66 -1.12,2.09 -0.26,0.43 -0.7,0.88 -1.3,1.33 -0.6,0.46 -1.37,0.68 -2.31,0.68 -0.94,0 -2.22,-0.41 -3.86,-1.23 -2.79,-1.35 -4.18,-2.88 -4.18,-4.61 0,-0.82 0.41,-2.04 1.23,-3.68l19.46 -40.29c0.53,-1.11 1.33,-1.99 2.41,-2.67 1.08,-0.67 2.22,-1.01 3.42,-1.01 2.59,0 4.52,1.25 5.77,3.75zm-5.84 17.3l-4.76 9.87 9.59 0 -4.83 -9.87zm56.29 -5.77c0.91,0.29 1.67,0.78 2.27,1.48 0.6,0.7 0.9,1.81 0.9,3.35 0,1.54 -0.46,3.22 -1.37,5.05 -0.91,1.83 -2.23,2.74 -3.96,2.74 -0.87,0 -1.69,-0.19 -2.49,-0.58 -0.79,-0.38 -1.84,-0.58 -3.14,-0.58 -1.3,0 -2.51,0.46 -3.64,1.37 -1.13,0.91 -1.69,2.02 -1.69,3.32l0 15.14c0,1.1 -0.04,1.93 -0.11,2.49 -0.07,0.55 -0.3,1.19 -0.68,1.91 -0.72,1.25 -2.59,1.87 -5.62,1.87 -2.31,0 -3.96,-0.41 -4.97,-1.23 -0.77,-0.67 -1.2,-1.71 -1.3,-3.1 0,-0.48 0,-1.18 0,-2.09l0 -25.3c0,-1.1 0.04,-1.93 0.11,-2.49 0.07,-0.55 0.28,-1.17 0.61,-1.84 0.67,-1.3 2.55,-1.95 5.62,-1.95 2.88,0 4.68,0.55 5.41,1.66 0.53,0.77 0.79,1.56 0.79,2.38 0.24,-0.34 0.59,-0.74 1.04,-1.22 0.46,-0.48 1.43,-1.13 2.92,-1.95 1.49,-0.82 2.8,-1.23 3.93,-1.23 1.13,0 2.08,0.06 2.85,0.18 0.77,0.12 1.61,0.32 2.52,0.61zm29.19 12.32l-4.68 -0.29 0 9.95c0,1.3 0.2,2.23 0.61,2.81 0.41,0.58 1.18,0.86 2.31,0.86 1.13,0 1.99,0.04 2.59,0.11 0.6,0.07 1.24,0.3 1.91,0.68 1.11,0.62 1.66,2.23 1.66,4.83 0,3.03 -0.67,4.88 -2.02,5.55 -0.72,0.34 -1.36,0.54 -1.91,0.61 -0.55,0.07 -1.36,0.11 -2.41,0.11 -5,0 -8.79,-1.13 -11.39,-3.39 -2.59,-2.26 -3.89,-6.08 -3.89,-11.46l0 -10.67c-0.91,0.14 -1.9,0.22 -2.95,0.22 -1.06,0 -1.93,-0.41 -2.63,-1.23 -0.7,-0.82 -1.05,-2.21 -1.05,-4.18 0,-1.97 0.12,-3.4 0.36,-4.29 0.24,-0.89 0.58,-1.53 1.01,-1.91 0.77,-0.62 1.73,-0.94 2.88,-0.94l2.38 0.29 0 -7.42c0,-1.1 0.04,-1.92 0.11,-2.45 0.07,-0.53 0.3,-1.1 0.68,-1.73 0.62,-1.2 2.47,-1.8 5.55,-1.8 3.27,0 5.21,0.89 5.84,2.67 0.24,0.77 0.36,1.99 0.36,3.68l0 7.06c2.11,-0.19 3.71,-0.29 4.79,-0.29 1.08,0 1.9,0.04 2.45,0.11 0.55,0.07 1.19,0.3 1.91,0.68 1.25,0.62 1.87,2.47 1.87,5.55 0,3.03 -0.65,4.88 -1.95,5.55 -0.72,0.34 -1.36,0.54 -1.91,0.61 -0.55,0.07 -1.38,0.11 -2.49,0.11zm21.48 -26.09c0.82,0.82 1.23,2.21 1.23,4.18l0 1.15c0,1.2 -0.05,2.09 -0.14,2.67 -0.34,4.23 -1.59,7.86 -3.75,10.88 -2.16,3.03 -4.9,4.54 -8.22,4.54 -0.34,0 -0.64,-0.25 -0.9,-0.76 -0.26,-0.5 -0.4,-1.17 -0.4,-1.98 0,-0.82 0.11,-1.45 0.32,-1.91 0.22,-0.46 0.46,-0.72 0.72,-0.79 0.26,-0.07 0.47,-0.12 0.61,-0.14 0.14,-0.02 0.41,-0.14 0.79,-0.36 0.38,-0.22 0.72,-0.52 1.01,-0.9 0.77,-1.01 1.2,-2.57 1.3,-4.68 -1.63,-0.24 -2.85,-0.77 -3.64,-1.59 -0.79,-0.82 -1.19,-2.55 -1.19,-5.19 0,-1.92 0.24,-3.35 0.72,-4.29 0.48,-0.94 1.21,-1.56 2.2,-1.87 0.98,-0.31 2.51,-0.47 4.58,-0.47 2.07,0 3.65,0.5 4.76,1.51zm6.2 47.93c-0.91,-0.58 -1.37,-1.49 -1.37,-2.74 0,-1.25 0.91,-3.15 2.74,-5.69 0.53,-0.82 1.38,-1.23 2.56,-1.23 1.18,0 2.77,0.59 4.79,1.77 2.02,1.18 3.84,1.77 5.48,1.77 2.93,0 4.4,-0.58 4.4,-1.73 0,-0.91 -1.61,-1.59 -4.83,-2.02 -3.03,-0.43 -6.03,-1.56 -9.01,-3.39 -1.39,-0.87 -2.55,-2.22 -3.46,-4.07 -0.91,-1.85 -1.37,-4.05 -1.37,-6.59 0,-7.59 5.21,-11.39 15.64,-11.39 3.41,0 6.92,0.82 10.52,2.45 1.68,0.77 2.52,1.73 2.52,2.88 0,1.15 -0.53,2.57 -1.59,4.25 -1.06,1.68 -2.14,2.52 -3.24,2.52 -0.58,0 -1.65,-0.36 -3.21,-1.08 -1.56,-0.72 -3.26,-1.08 -5.08,-1.08 -2.83,0 -4.25,0.53 -4.25,1.59 0,1.44 1.63,2.38 4.9,2.81 3.17,0.34 6.25,1.25 9.23,2.74 1.39,0.67 2.56,1.84 3.5,3.5 0.94,1.66 1.41,3.74 1.41,6.23 0,2.5 -0.47,4.63 -1.41,6.38 -0.94,1.75 -2.25,3.06 -3.93,3.93 -3.08,1.49 -6.93,2.23 -11.57,2.23 -4.64,0 -9.09,-1.35 -13.37,-4.04zm-36.83 152.82l0 -86.94c15.92,-13.34 36.47,-19.62 57.21,-20.41 5.23,-0.2 9.52,3.89 9.52,9.07l0.07 68.61c0.01,4.89 -3.9,8.91 -8.83,9.09 -21.14,0.77 -41,8.31 -57.98,20.58zm32.24 -81.65c-4.32,1.58 -8.45,3.58 -12.32,6.02l0.22 41.51 0.31 -0.11c7.58,-2.72 15.46,-4.72 23.55,-5.92 1.13,-0.11 1.83,-1.07 1.82,-1.87l-0.04 -38.17c-0.03,-2.57 -2.17,-4.7 -4.4,-4.18 -3.1,0.72 -6.15,1.63 -9.13,2.72zm-68.39 81.1l0 -86.94c-15.92,-13.34 -36.47,-19.62 -57.21,-20.41 -5.23,-0.2 -9.52,3.89 -9.52,9.07l-0.08 68.61c-0,4.89 3.9,8.91 8.83,9.09 21.14,0.77 40.99,8.31 57.98,20.58zm-32.24 -81.65c4.32,1.58 8.45,3.58 12.32,6.02l-0.22 41.51 -0.31 -0.11c-7.58,-2.72 -15.46,-4.72 -23.55,-5.92 -1.13,-0.11 -1.83,-1.07 -1.82,-1.87l0.04 -38.17c0.03,-2.57 2.17,-4.7 4.4,-4.18 3.1,0.72 6.15,1.63 9.13,2.72zm68.39 87.17l-0.02 -0.24c-10.29,4.86 -25.84,4.86 -36.13,0l-0 0.25c-0,-0 -0.01,-0 -0.01,-0l0 9.96c0,9.81 7.9,17.78 18.08,17.78 10.17,0 18.08,-7.97 18.08,-17.78l0 -9.96zm-15.09 -101.52l0 91.57c0,3.94 -5.98,3.94 -5.98,0l0 -91.57c0,-3.93 5.98,-3.93 5.98,0zm6.67 -19.98l-4.25 0 -5.4 0 -5.4 0 -4.25 0 -2.85 0.04c0.03,-0.22 0.07,-0.45 0.12,-0.7 0.6,-2.13 2.83,-5.98 4.62,-9.71 1.87,-3.91 3.97,-7.73 5.37,-9.49 0.71,-0.89 1.56,-1.2 2.39,-1.13 0.83,-0.07 1.68,0.24 2.39,1.13 1.41,1.76 3.5,5.58 5.37,9.49 1.79,3.73 4.02,7.58 4.62,9.71 0.05,0.25 0.09,0.48 0.12,0.7l-2.85 -0.04zm7.38 9.36l-2.73 -6.9c3.7,-5.15 18.46,-20.39 23.51,-22.11 4.71,-1.6 6.83,2.14 6.95,4.79l0.14 3.3c-10.46,6.64 -18.96,12.95 -27.88,20.92zm42.24 -19.31c4.95,-0.86 8.88,3.23 8.92,6.63l0.09 7.61c-17.53,2.36 -37.45,8.71 -50.36,21.15l0.07 -10.89c12.49,-10.3 25.79,-19.34 41.28,-24.5zm-76.31 19.31l2.73 -6.9c-3.7,-5.15 -18.46,-20.39 -23.51,-22.11 -4.71,-1.6 -6.83,2.14 -6.95,4.79l-0.14 3.3c10.46,6.64 18.96,12.95 27.88,20.92zm-42.24 -19.31c-4.95,-0.86 -8.88,3.23 -8.92,6.63l-0.09 7.61c17.53,2.36 37.45,8.71 50.36,21.15l-0.07 -10.89c-12.49,-10.3 -25.79,-19.34 -41.28,-24.5zm192.7 60.72c12.2,11.72 20.84,20.52 25.94,26.42 2.63,2.95 3.95,5.44 3.95,7.47 0,2.03 -1.59,4.42 -4.78,7.17 -3.19,2.75 -5.8,4.13 -7.83,4.13 -2.03,0 -4.48,-1.67 -7.35,-5.02l-26.3 -30.01 0 23.31c0,1.91 -0.06,3.31 -0.18,4.18 -0.12,0.88 -0.5,1.91 -1.14,3.11 -1.12,2.15 -4.22,3.23 -9.33,3.23 -5.58,0 -8.85,-1.51 -9.8,-4.54 -0.48,-1.27 -0.72,-3.31 -0.72,-6.1l0 -66.47c0,-1.83 0.06,-3.21 0.18,-4.12 0.12,-0.92 0.5,-1.97 1.14,-3.17 1.12,-2.15 4.22,-3.23 9.33,-3.23 5.58,0 8.89,1.47 9.92,4.42 0.4,1.36 0.6,3.43 0.6,6.22l0 22.84c10.84,-12.2 19.61,-22.2 26.3,-30.01 2.79,-3.27 5.22,-4.9 7.29,-4.9 2.07,0 4.7,1.37 7.89,4.13 3.19,2.75 4.78,5.14 4.78,7.17 0,2.03 -1.2,4.44 -3.59,7.23 -4.62,5.34 -11.8,12.67 -21.52,22l-4.78 4.54zm-247.96 14.59c0,-1.91 -0.22,-3.43 -0.66,-4.54 -0.44,-1.12 -1.18,-1.91 -2.21,-2.39 -1.59,-0.64 -3.83,-0.96 -6.7,-0.96 -2.87,0 -5.02,-0.56 -6.46,-1.67 -1.43,-1.12 -2.15,-3.41 -2.15,-6.87 0,-3.47 0.74,-5.76 2.21,-6.87 1.47,-1.12 3.92,-1.67 7.35,-1.67 3.19,0 5.1,-0.84 5.74,-2.51 0.24,-0.88 0.36,-2.31 0.36,-4.3 0,-1.99 -0.66,-3.39 -1.97,-4.18 -1.31,-0.8 -3.29,-1.2 -5.92,-1.2l-16.74 0 0 45.31 19.61 0c5.02,0 7.53,-2.71 7.53,-8.13z"/>
 </g>
</svg>
