<?xml version="1.0" encoding="UTF-8"?>
<!DOCTYPE svg PUBLIC "-//W3C//DTD SVG 1.1//EN" "http://www.w3.org/Graphics/SVG/1.1/DTD/svg11.dtd">
<!-- Creator: CorelDRAW 2020 (64-Bit) -->
<svg xmlns="http://www.w3.org/2000/svg" xml:space="preserve" width="46.2594mm" height="31.9631mm" version="1.1" style="shape-rendering:geometricPrecision; text-rendering:geometricPrecision; image-rendering:optimizeQuality; fill-rule:evenodd; clip-rule:evenodd"
viewBox="0 0 309.09 213.57"
 xmlns:xlink="http://www.w3.org/1999/xlink"
 xmlns:xodm="http://www.corel.com/coreldraw/odm/2003">
 <defs>
  <style type="text/css">
   <![CDATA[
    .fil0 {fill:#FEFEFE}
   ]]>
  </style>
 </defs>
 <g id="Capa_x0020_1">
  <metadata id="CorelCorpID_0Corel-Layer"/>
  <path class="fil0" d="M59.14 126.53c4.46,5.29 6.69,11.22 6.69,17.79 -0.15,7.55 -2.74,13.88 -7.76,18.98 -5.02,5.1 -11.12,7.65 -18.3,7.65l-29.8 0c-5.29,0 -8.38,-1.44 -9.29,-4.31 -0.45,-1.28 -0.68,-3.25 -0.68,-5.89l0 -62.88c0,-1.81 0.06,-3.14 0.17,-3.97 0.11,-0.83 0.47,-1.81 1.08,-2.95 1.06,-2.04 4,-3.06 8.84,-3.06l28.55 0c6.95,0 12.77,2.42 17.45,7.25 4.91,4.91 7.36,10.8 7.36,17.68 0,4.99 -1.44,9.55 -4.31,13.71zm45.51 -122.98l18.44 38.11c0.77,1.55 1.16,2.71 1.16,3.48 0,1.64 -1.32,3.12 -3.96,4.44 -1.55,0.77 -2.77,1.16 -3.65,1.16 -0.89,0 -1.62,-0.2 -2.19,-0.61 -0.57,-0.41 -0.98,-0.84 -1.23,-1.3 -0.25,-0.46 -0.6,-1.14 -1.06,-2.05l-3.55 -7.38 -18.92 0 -3.55 7.38c-0.46,0.91 -0.81,1.57 -1.06,1.98 -0.25,0.41 -0.66,0.83 -1.23,1.26 -0.57,0.43 -1.3,0.65 -2.19,0.65 -0.89,0 -2.11,-0.39 -3.65,-1.16 -2.64,-1.27 -3.96,-2.73 -3.96,-4.37 0,-0.77 0.39,-1.94 1.16,-3.48l18.44 -38.18c0.5,-1.05 1.26,-1.89 2.29,-2.53 1.02,-0.64 2.11,-0.96 3.24,-0.96 2.46,0 4.28,1.18 5.46,3.55zm-5.53 16.39l-4.51 9.36 9.08 0 -4.58 -9.36zm53.34 -5.46c0.87,0.27 1.58,0.74 2.15,1.4 0.57,0.66 0.85,1.72 0.85,3.18 0,1.46 -0.43,3.05 -1.3,4.78 -0.87,1.73 -2.12,2.6 -3.76,2.6 -0.82,0 -1.61,-0.18 -2.36,-0.55 -0.75,-0.36 -1.74,-0.55 -2.97,-0.55 -1.23,0 -2.38,0.43 -3.45,1.3 -1.07,0.87 -1.6,1.91 -1.6,3.14l0 14.34c0,1.05 -0.03,1.83 -0.1,2.36 -0.07,0.52 -0.28,1.13 -0.65,1.81 -0.68,1.18 -2.46,1.78 -5.33,1.78 -2.19,0 -3.76,-0.39 -4.71,-1.16 -0.73,-0.64 -1.14,-1.62 -1.23,-2.94 0,-0.46 0,-1.12 0,-1.98l0 -23.97c0,-1.05 0.03,-1.83 0.1,-2.36 0.07,-0.52 0.26,-1.1 0.58,-1.74 0.64,-1.23 2.41,-1.84 5.33,-1.84 2.73,0 4.44,0.52 5.12,1.57 0.5,0.73 0.75,1.48 0.75,2.25 0.23,-0.32 0.56,-0.71 0.99,-1.16 0.43,-0.46 1.35,-1.07 2.77,-1.84 1.41,-0.77 2.65,-1.16 3.72,-1.16 1.07,0 1.97,0.06 2.7,0.17 0.73,0.11 1.53,0.31 2.39,0.58zm27.66 11.68l-4.44 -0.27 0 9.43c0,1.23 0.19,2.12 0.58,2.66 0.39,0.55 1.12,0.82 2.19,0.82 1.07,0 1.89,0.03 2.46,0.1 0.57,0.07 1.17,0.28 1.81,0.65 1.05,0.59 1.57,2.12 1.57,4.58 0,2.87 -0.64,4.62 -1.91,5.26 -0.68,0.32 -1.29,0.51 -1.81,0.58 -0.52,0.07 -1.29,0.1 -2.29,0.1 -4.74,0 -8.33,-1.07 -10.79,-3.21 -2.46,-2.14 -3.69,-5.76 -3.69,-10.86l0 -10.11c-0.87,0.14 -1.8,0.21 -2.8,0.21 -1,0 -1.83,-0.39 -2.49,-1.16 -0.66,-0.77 -0.99,-2.09 -0.99,-3.96 0,-1.87 0.11,-3.22 0.34,-4.06 0.23,-0.84 0.55,-1.45 0.96,-1.81 0.73,-0.59 1.64,-0.89 2.73,-0.89l2.25 0.27 0 -7.04c0,-1.05 0.03,-1.82 0.1,-2.32 0.07,-0.5 0.28,-1.05 0.65,-1.64 0.59,-1.14 2.35,-1.71 5.26,-1.71 3.1,0 4.94,0.84 5.53,2.53 0.23,0.73 0.34,1.89 0.34,3.48l0 6.69c2,-0.18 3.52,-0.27 4.54,-0.27 1.02,0 1.8,0.03 2.32,0.1 0.52,0.07 1.13,0.28 1.81,0.65 1.18,0.59 1.78,2.35 1.78,5.26 0,2.87 -0.61,4.62 -1.84,5.26 -0.68,0.32 -1.29,0.51 -1.81,0.58 -0.52,0.07 -1.31,0.1 -2.36,0.1zm20.35 -24.73c0.77,0.77 1.16,2.09 1.16,3.96l0 1.09c0,1.14 -0.05,1.98 -0.14,2.53 -0.32,4.01 -1.5,7.44 -3.55,10.31 -2.05,2.87 -4.64,4.3 -7.79,4.3 -0.32,0 -0.6,-0.24 -0.85,-0.72 -0.25,-0.48 -0.38,-1.1 -0.38,-1.88 0,-0.77 0.1,-1.38 0.31,-1.81 0.2,-0.43 0.43,-0.68 0.68,-0.75 0.25,-0.07 0.44,-0.11 0.58,-0.14 0.14,-0.02 0.39,-0.14 0.75,-0.34 0.36,-0.21 0.68,-0.49 0.96,-0.85 0.73,-0.96 1.14,-2.44 1.23,-4.44 -1.55,-0.23 -2.7,-0.73 -3.45,-1.5 -0.75,-0.77 -1.13,-2.41 -1.13,-4.92 0,-1.82 0.23,-3.18 0.68,-4.06 0.46,-0.89 1.15,-1.48 2.08,-1.78 0.93,-0.3 2.38,-0.44 4.34,-0.44 1.96,0 3.46,0.48 4.51,1.43zm5.87 45.42c-0.87,-0.55 -1.3,-1.41 -1.3,-2.6 0,-1.18 0.86,-2.98 2.6,-5.4 0.5,-0.77 1.31,-1.16 2.42,-1.16 1.12,0 2.63,0.56 4.54,1.67 1.91,1.12 3.64,1.67 5.19,1.67 2.78,0 4.17,-0.55 4.17,-1.64 0,-0.86 -1.53,-1.5 -4.58,-1.91 -2.87,-0.41 -5.71,-1.48 -8.54,-3.21 -1.32,-0.82 -2.41,-2.11 -3.28,-3.86 -0.87,-1.75 -1.3,-3.84 -1.3,-6.25 0,-7.19 4.94,-10.79 14.82,-10.79 3.23,0 6.56,0.77 9.97,2.32 1.59,0.73 2.39,1.64 2.39,2.73 0,1.09 -0.5,2.44 -1.5,4.03 -1,1.59 -2.03,2.39 -3.07,2.39 -0.55,0 -1.56,-0.34 -3.04,-1.02 -1.48,-0.68 -3.08,-1.02 -4.82,-1.02 -2.69,0 -4.03,0.5 -4.03,1.5 0,1.37 1.55,2.25 4.64,2.66 3.01,0.32 5.92,1.18 8.74,2.6 1.32,0.64 2.42,1.74 3.31,3.31 0.89,1.57 1.33,3.54 1.33,5.91 0,2.37 -0.44,4.38 -1.33,6.04 -0.89,1.66 -2.13,2.9 -3.72,3.72 -2.91,1.41 -6.57,2.12 -10.96,2.12 -4.39,0 -8.62,-1.27 -12.67,-3.82zm-68.92 147.19c-0.01,2.48 -0.02,4.96 -0.02,7.44 -0.01,9.77 9.23,12.07 17.13,12.08 7.9,-0.01 17.15,-2.31 17.13,-12.08 -0,-2.48 -0.01,-4.96 -0.02,-7.44 -9.75,6.74 -24.48,6.74 -34.23,0zm34.02 -2.36l0 -82.39c15.09,-12.64 34.56,-18.59 54.22,-19.34 4.95,-0.19 9.02,3.69 9.03,8.59l0.07 65.02c0.01,4.63 -3.7,8.44 -8.37,8.61 -20.04,0.73 -38.85,7.87 -54.95,19.51zm30.55 -77.38c-4.09,1.5 -8.01,3.39 -11.68,5.7l0.21 39.34 0.3 -0.11c7.19,-2.58 14.65,-4.48 22.32,-5.61 1.07,-0.1 1.73,-1.02 1.72,-1.77l-0.04 -36.17c-0.03,-2.44 -2.06,-4.45 -4.17,-3.96 -2.94,0.69 -5.83,1.54 -8.65,2.58zm-64.82 76.86l0 -82.39c-15.09,-12.64 -34.56,-18.59 -54.22,-19.34 -4.95,-0.19 -9.02,3.69 -9.03,8.59l-0.07 65.02c-0,4.63 3.7,8.44 8.37,8.61 20.04,0.73 38.85,7.87 54.95,19.51zm-30.55 -77.38c4.09,1.5 8.01,3.39 11.68,5.7l-0.21 39.34 -0.3 -0.11c-7.19,-2.58 -14.65,-4.48 -22.32,-5.61 -1.07,-0.1 -1.73,-1.02 -1.72,-1.77l0.04 -36.17c0.03,-2.44 2.06,-4.45 4.17,-3.96 2.94,0.68 5.83,1.54 8.65,2.58zm50.52 -13.61l0 86.78c0,3.73 -5.66,3.73 -5.66,0l0 -86.78c0,-3.72 5.66,-3.72 5.66,0zm-14.68 -18.89c0.33,-2.43 3.34,-7.45 4.49,-9.86 1.78,-3.7 3.76,-7.33 5.09,-8.99 0.67,-0.84 1.47,-1.14 2.27,-1.07 0.79,-0.07 1.59,0.23 2.27,1.07 1.33,1.66 3.32,5.29 5.09,8.99 1.16,2.41 4.16,7.43 4.49,9.86 -6.78,2.4 -17.3,2.41 -23.7,0zm27.99 8.84l-2.59 -6.54c3.5,-4.88 17.5,-19.33 22.28,-20.95 4.46,-1.51 6.48,2.03 6.59,4.54l0.14 3.12c-9.91,6.3 -17.97,12.28 -26.42,19.83zm40.03 -18.3c4.69,-0.82 8.42,3.06 8.46,6.28l0.08 7.21c-16.62,2.24 -35.49,8.25 -47.72,20.04l0.06 -10.32c11.84,-9.76 24.44,-18.33 39.12,-23.22zm-72.32 18.3l2.59 -6.54c-3.5,-4.88 -17.5,-19.33 -22.28,-20.95 -4.46,-1.51 -6.48,2.03 -6.59,4.54l-0.14 3.12c9.91,6.3 17.97,12.28 26.42,19.83zm-40.03 -18.3c-4.69,-0.82 -8.42,3.06 -8.46,6.28l-0.08 7.21c16.62,2.24 35.49,8.25 47.72,20.04l-0.06 -10.32c-11.84,-9.76 -24.44,-18.33 -39.12,-23.22zm182.62 57.54c11.56,11.1 19.75,19.45 24.59,25.04 2.49,2.79 3.74,5.15 3.74,7.08 0,1.93 -1.51,4.19 -4.53,6.8 -3.02,2.61 -5.5,3.91 -7.42,3.91 -1.93,0 -4.25,-1.59 -6.97,-4.76l-24.93 -28.44 0 22.09c0,1.81 -0.06,3.13 -0.17,3.96 -0.11,0.83 -0.47,1.81 -1.08,2.95 -1.06,2.04 -4,3.06 -8.84,3.06 -5.29,0 -8.38,-1.44 -9.29,-4.31 -0.45,-1.21 -0.68,-3.13 -0.68,-5.78l0 -63c0,-1.74 0.06,-3.04 0.17,-3.91 0.11,-0.87 0.47,-1.87 1.08,-3 1.06,-2.04 4,-3.06 8.84,-3.06 5.29,0 8.42,1.4 9.4,4.19 0.38,1.28 0.57,3.25 0.57,5.89l0 21.64c10.27,-11.56 18.58,-21.04 24.93,-28.44 2.64,-3.1 4.95,-4.65 6.91,-4.65 1.96,0 4.46,1.3 7.48,3.91 3.02,2.61 4.53,4.87 4.53,6.8 0,1.93 -1.13,4.21 -3.4,6.85 -4.38,5.06 -11.18,12.01 -20.39,20.85l-4.53 4.31zm-234.99 13.82c0,-1.81 -0.21,-3.25 -0.62,-4.31 -0.42,-1.06 -1.11,-1.81 -2.1,-2.27 -1.51,-0.6 -3.63,-0.91 -6.34,-0.91 -2.72,0 -4.76,-0.53 -6.12,-1.59 -1.36,-1.06 -2.04,-3.23 -2.04,-6.51 0,-3.29 0.7,-5.46 2.1,-6.52 1.4,-1.06 3.72,-1.59 6.97,-1.59 3.02,0 4.83,-0.79 5.44,-2.38 0.23,-0.83 0.34,-2.19 0.34,-4.08 0,-1.89 -0.62,-3.21 -1.87,-3.97 -1.25,-0.76 -3.12,-1.13 -5.61,-1.13l-15.86 0 0 42.94 18.58 0c4.76,0 7.14,-2.57 7.14,-7.7z"/>
 </g>
</svg>
