<?xml version="1.0" encoding="UTF-8"?>
<!DOCTYPE svg PUBLIC "-//W3C//DTD SVG 1.1//EN" "http://www.w3.org/Graphics/SVG/1.1/DTD/svg11.dtd">
<!-- Creator: CorelDRAW 2020 (64-Bit) -->
<svg xmlns="http://www.w3.org/2000/svg" xml:space="preserve" width="63.7961mm" height="11.2337mm" version="1.1" style="shape-rendering:geometricPrecision; text-rendering:geometricPrecision; image-rendering:optimizeQuality; fill-rule:evenodd; clip-rule:evenodd"
viewBox="0 0 782.11 137.72"
 xmlns:xlink="http://www.w3.org/1999/xlink"
 xmlns:xodm="http://www.corel.com/coreldraw/odm/2003">
 <defs>
  <style type="text/css">
   <![CDATA[
    .fil0 {fill:#FEFEFE;fill-rule:nonzero}
   ]]>
  </style>
 </defs>
 <g id="Capa_x0020_1">
  <metadata id="CorelCorpID_0Corel-Layer"/>
  <path class="fil0" d="M78.6 16.49l47.37 97.9c1.99,3.98 2.98,6.96 2.98,8.95 0,4.21 -3.39,8.01 -10.18,11.4 -3.98,1.99 -7.11,2.98 -9.39,2.98 -2.28,0 -4.15,-0.53 -5.61,-1.58 -1.46,-1.05 -2.51,-2.16 -3.16,-3.33 -0.64,-1.17 -1.55,-2.92 -2.72,-5.26l-9.12 -18.95 -48.6 0 -9.12 18.95c-1.17,2.34 -2.08,4.03 -2.72,5.09 -0.64,1.05 -1.7,2.13 -3.16,3.25 -1.46,1.11 -3.33,1.67 -5.61,1.67 -2.28,0 -5.41,-0.99 -9.39,-2.98 -6.78,-3.27 -10.18,-7.02 -10.18,-11.23 0,-1.99 0.99,-4.97 2.98,-8.95l47.37 -98.07c1.29,-2.69 3.25,-4.85 5.88,-6.49 2.63,-1.64 5.41,-2.46 8.33,-2.46 6.32,0 10.99,3.04 14.04,9.12zm-14.21 42.11l-11.58 24.03 23.33 0 -11.75 -24.03zm137.02 -14.04c2.22,0.7 4.06,1.9 5.53,3.6 1.46,1.7 2.19,4.41 2.19,8.16 0,3.74 -1.11,7.84 -3.33,12.28 -2.22,4.44 -5.44,6.67 -9.65,6.67 -2.11,0 -4.12,-0.47 -6.05,-1.4 -1.93,-0.94 -4.47,-1.4 -7.63,-1.4 -3.16,0 -6.11,1.11 -8.86,3.33 -2.75,2.22 -4.12,4.91 -4.12,8.07l0 36.84c0,2.69 -0.09,4.71 -0.26,6.05 -0.18,1.34 -0.73,2.89 -1.67,4.65 -1.76,3.04 -6.32,4.56 -13.69,4.56 -5.61,0 -9.65,-0.99 -12.11,-2.98 -1.87,-1.64 -2.92,-4.15 -3.16,-7.54 0,-1.17 0,-2.87 0,-5.09l0 -61.58c0,-2.69 0.09,-4.71 0.26,-6.05 0.18,-1.34 0.67,-2.84 1.49,-4.47 1.64,-3.16 6.2,-4.74 13.68,-4.74 7.02,0 11.4,1.34 13.16,4.03 1.29,1.87 1.93,3.8 1.93,5.79 0.58,-0.82 1.43,-1.81 2.54,-2.98 1.11,-1.17 3.48,-2.75 7.11,-4.74 3.63,-1.99 6.81,-2.98 9.56,-2.98 2.75,0 5.06,0.15 6.93,0.44 1.87,0.29 3.92,0.79 6.14,1.49zm71.05 30l-11.4 -0.7 0 24.21c0,3.16 0.5,5.44 1.49,6.84 0.99,1.4 2.87,2.11 5.61,2.11 2.75,0 4.85,0.09 6.32,0.26 1.46,0.18 3.01,0.73 4.65,1.67 2.69,1.52 4.04,5.44 4.04,11.75 0,7.37 -1.64,11.87 -4.91,13.51 -1.75,0.82 -3.3,1.32 -4.65,1.49 -1.35,0.18 -3.31,0.26 -5.88,0.26 -12.16,0 -21.4,-2.75 -27.72,-8.25 -6.32,-5.5 -9.47,-14.79 -9.47,-27.9l0 -25.96c-2.22,0.35 -4.62,0.53 -7.19,0.53 -2.57,0 -4.71,-0.99 -6.4,-2.98 -1.7,-1.99 -2.54,-5.38 -2.54,-10.18 0,-4.79 0.29,-8.28 0.88,-10.44 0.58,-2.16 1.4,-3.71 2.46,-4.65 1.87,-1.52 4.21,-2.28 7.02,-2.28l5.79 0.7 0 -18.07c0,-2.69 0.09,-4.68 0.26,-5.96 0.18,-1.29 0.73,-2.69 1.67,-4.21 1.52,-2.92 6.02,-4.39 13.51,-4.39 7.95,0 12.69,2.16 14.21,6.49 0.58,1.87 0.88,4.85 0.88,8.95l0 17.19c5.15,-0.47 9.03,-0.7 11.67,-0.7 2.63,0 4.62,0.09 5.97,0.26 1.34,0.18 2.89,0.73 4.65,1.67 3.04,1.52 4.56,6.02 4.56,13.51 0,7.37 -1.58,11.87 -4.74,13.51 -1.75,0.82 -3.3,1.32 -4.65,1.49 -1.34,0.18 -3.36,0.26 -6.05,0.26zm25.79 53.16c-2.22,-1.4 -3.33,-3.63 -3.33,-6.67 0,-3.04 2.22,-7.66 6.67,-13.86 1.29,-1.99 3.36,-2.98 6.23,-2.98 2.87,0 6.75,1.43 11.67,4.3 4.91,2.87 9.36,4.3 13.33,4.3 7.14,0 10.7,-1.4 10.7,-4.21 0,-2.22 -3.92,-3.86 -11.75,-4.91 -7.37,-1.05 -14.68,-3.8 -21.93,-8.25 -3.39,-2.11 -6.2,-5.41 -8.42,-9.91 -2.22,-4.5 -3.33,-9.85 -3.33,-16.05 0,-18.48 12.69,-27.72 38.07,-27.72 8.3,0 16.84,1.99 25.62,5.96 4.09,1.87 6.14,4.21 6.14,7.02 0,2.81 -1.29,6.26 -3.86,10.35 -2.57,4.09 -5.2,6.14 -7.9,6.14 -1.4,0 -4.01,-0.88 -7.81,-2.63 -3.8,-1.75 -7.92,-2.63 -12.37,-2.63 -6.9,0 -10.35,1.29 -10.35,3.86 0,3.51 3.98,5.79 11.93,6.84 7.72,0.82 15.21,3.04 22.46,6.67 3.39,1.64 6.23,4.47 8.51,8.51 2.28,4.04 3.42,9.09 3.42,15.18 0,6.08 -1.14,11.26 -3.42,15.53 -2.28,4.27 -5.47,7.46 -9.56,9.56 -7.49,3.63 -16.87,5.44 -28.16,5.44 -11.29,0 -22.13,-3.27 -32.54,-9.82zm135.79 -84.04c10.41,0 19.97,4.62 28.68,13.86 8.71,9.24 13.07,19.97 13.07,32.19 0,12.22 -4.33,22.92 -12.98,32.11 -8.66,9.18 -17.95,13.77 -27.9,13.77 -9.94,0 -17.02,-2.81 -21.23,-8.42 -0.94,5.73 -5.96,8.6 -15.09,8.6 -7.37,0 -11.87,-1.58 -13.51,-4.74 -0.82,-1.75 -1.32,-3.3 -1.49,-4.65 -0.18,-1.34 -0.26,-3.36 -0.26,-6.05l0 -104.74c0,-2.69 0.09,-4.71 0.26,-6.05 0.18,-1.34 0.67,-2.84 1.49,-4.47 1.64,-3.16 6.2,-4.74 13.68,-4.74 7.37,0 11.81,1.58 13.33,4.74 0.94,1.75 1.49,3.3 1.67,4.65 0.18,1.34 0.26,3.36 0.26,6.05l0 36.49c4.68,-5.73 11.34,-8.6 20,-8.6zm-15.35 56.67c2.87,3.16 6.46,4.74 10.79,4.74 4.33,0 8.01,-1.58 11.05,-4.74 3.04,-3.16 4.56,-6.67 4.56,-10.53 0,-3.86 -1.4,-7.4 -4.21,-10.61 -2.81,-3.22 -6.55,-4.83 -11.23,-4.83 -4.68,0 -8.39,1.64 -11.14,4.91 -2.75,3.27 -4.12,6.81 -4.12,10.61 0,3.8 1.43,7.28 4.3,10.44zm65.88 -10.53c0,-14.03 4.91,-25.61 14.74,-34.74 9.82,-9.12 21.05,-13.69 33.69,-13.69 12.63,0 23.8,4.53 33.51,13.6 9.71,9.06 14.56,20.61 14.56,34.65 0,9.71 -2.51,18.33 -7.54,25.88 -5.03,7.54 -11.14,13.1 -18.33,16.67 -7.19,3.57 -14.65,5.35 -22.37,5.35 -7.72,0 -15.21,-1.9 -22.46,-5.7 -7.25,-3.8 -13.36,-9.42 -18.33,-16.84 -4.97,-7.43 -7.46,-15.82 -7.46,-25.18zm36.67 12.54c3.74,2.87 7.54,4.3 11.4,4.3 3.86,0 7.72,-1.46 11.58,-4.39 3.86,-2.92 5.79,-7.25 5.79,-12.98 0,-5.73 -1.81,-10 -5.44,-12.81 -3.63,-2.81 -7.54,-4.21 -11.75,-4.21 -4.21,0 -8.13,1.46 -11.76,4.39 -3.63,2.92 -5.44,7.22 -5.44,12.89 0,5.67 1.87,9.94 5.61,12.81zm68.6 -12.54c0,-14.03 4.91,-25.61 14.74,-34.74 9.82,-9.12 21.05,-13.69 33.69,-13.69 12.63,0 23.8,4.53 33.51,13.6 9.71,9.06 14.56,20.61 14.56,34.65 0,9.71 -2.51,18.33 -7.54,25.88 -5.03,7.54 -11.14,13.1 -18.33,16.67 -7.19,3.57 -14.65,5.35 -22.37,5.35 -7.72,0 -15.21,-1.9 -22.46,-5.7 -7.25,-3.8 -13.36,-9.42 -18.33,-16.84 -4.97,-7.43 -7.46,-15.82 -7.46,-25.18zm36.67 12.54c3.74,2.87 7.54,4.3 11.4,4.3 3.86,0 7.72,-1.46 11.58,-4.39 3.86,-2.92 5.79,-7.25 5.79,-12.98 0,-5.73 -1.81,-10 -5.44,-12.81 -3.63,-2.81 -7.54,-4.21 -11.75,-4.21 -4.21,0 -8.13,1.46 -11.76,4.39 -3.63,2.92 -5.44,7.22 -5.44,12.89 0,5.67 1.87,9.94 5.61,12.81zm125.61 -12.72l23.33 19.3c2.92,2.46 4.77,4.33 5.53,5.61 0.76,1.29 1.14,2.51 1.14,3.68 0,2.81 -1.81,6.61 -5.44,11.4 -3.98,4.91 -7.48,7.37 -10.53,7.37 -2.57,0 -6.14,-1.7 -10.7,-5.09l-1.75 -1.23c-2.69,-2.22 -6.84,-6.11 -12.46,-11.67 -5.61,-5.55 -9.88,-9.5 -12.81,-11.84l0 13.51c0,2.69 -0.09,4.71 -0.26,6.05 -0.18,1.34 -0.73,2.89 -1.67,4.65 -1.52,3.04 -6.02,4.56 -13.51,4.56 -7.37,0 -11.87,-1.58 -13.51,-4.74 -0.82,-1.75 -1.32,-3.3 -1.49,-4.65 -0.18,-1.34 -0.26,-3.36 -0.26,-6.05l0 -105.09c0,-2.69 0.09,-4.71 0.26,-6.05 0.18,-1.34 0.67,-2.89 1.49,-4.65 1.64,-3.16 6.2,-4.74 13.68,-4.74 5.61,0 9.59,0.99 11.93,2.98 1.99,1.64 3.04,4.21 3.16,7.72 0.12,1.05 0.18,2.69 0.18,4.91l0 55.61c2.1,-1.75 5.29,-4.74 9.56,-8.95 4.27,-4.21 7.46,-7.19 9.56,-8.95l2.1 -1.4c4.09,-3.16 7.6,-4.74 10.53,-4.74 2.92,0 6.29,2.37 10.09,7.11 3.8,4.74 5.7,8.45 5.7,11.14 0,2.69 -2.16,5.85 -6.49,9.47l-17.37 14.74z"/>
 </g>
</svg>
