<svg xmlns="http://www.w3.org/2000/svg" xmlns:xlink="http://www.w3.org/1999/xlink" style="margin:auto;background:#ffffff;display:block;z-index:1;position:relative" width="1920" height="969" preserveAspectRatio="xMidYMid" viewBox="0 0 1920 969">
<g transform=""><linearGradient id="lg-0.9634339156589034" x1="0" x2="1" y1="0" y2="0">
  <stop stop-color="#5c74eb" offset="0"></stop>
  <stop stop-color="#ab65ef" offset="1"></stop>
</linearGradient><path d="M 1589.82 485 C 1589.82 649.979 1255.98 859.674 1099 911 C 942.021 962.326 597.306 951.326 500.653 818.347 C 404 685.368 453.715 321 550.368 187.021 C 647.021 53.0416 937.285 20.8817 1094.26 72.2081 C 1251.24 123.534 1589.82 320.021 1589.82 485" fill="url(#lg-0.9634339156589034)" opacity="0.4">
  <animate attributeName="d" dur="10s" repeatCount="indefinite" keyTimes="0;0.3333333333333333;0.6666666666666666;1" calcmod="spline" keySplines="0.3 0.1 0.7 0.9;0.3 0.1 0.7 0.9;0.3 0.1 0.7 0.9" begin="-4s" values="M 1575 485 C 1575 652 1258 859 1099 911 C 940 963 600 952 502 817 C 404 682 449 321 547 185 C 645 49 942 0 1101 52 C 1260 104 1575 318 1575 485;M 1581 485 C 1581 658 1257 837 1092 891 C 927 945 562 988 460 848 C 358 708 395 288 497 148 C 599 8 949 -43 1114 11 C 1279 65 1581 312 1581 485;M 1597 485 C 1597 649 1255 860 1099 911 C 943 962 596 951 500 819 C 404 687 456 321 552 188 C 648 55 935 31 1091 82 C 1247 133 1597 321 1597 485;M 1575 485 C 1575 652 1258 859 1099 911 C 940 963 600 952 502 817 C 404 682 449 321 547 185 C 645 49 942 0 1101 52 C 1260 104 1575 318 1575 485"></animate>
</path><path d="M 1551.38 485 C 1551.38 644.611 1242.04 837.986 1090.43 886.965 C 938.819 935.944 630.194 921.216 536.562 792.257 C 442.93 663.299 444.555 306.757 538.187 177.798 C 631.819 48.8401 938.736 34.9792 1090.35 83.9584 C 1241.96 132.938 1551.38 325.389 1551.38 485" fill="url(#lg-0.9634339156589034)" opacity="0.4">
  <animate attributeName="d" dur="10s" repeatCount="indefinite" keyTimes="0;0.3333333333333333;0.6666666666666666;1" calcmod="spline" keySplines="0.3 0.1 0.7 0.9;0.3 0.1 0.7 0.9;0.3 0.1 0.7 0.9" begin="-4s" values="M 1612 485 C 1612 650 1238 807 1081 858 C 924 909 579 965 482 832 C 385 699 423 298 520 165 C 617 32 932 37 1089 88 C 1246 139 1612 320 1612 485;M 1562 485 C 1562 652 1258 860 1099 912 C 940 964 565 979 466 844 C 367 709 407 289 505 154 C 603 19 921 62 1080 114 C 1239 166 1562 318 1562 485;M 1522 485 C 1522 642 1244 853 1095 901 C 946 949 655 900 563 773 C 471 646 455 311 547 184 C 639 57 942 34 1091 82 C 1240 130 1522 328 1522 485;M 1612 485 C 1612 650 1238 807 1081 858 C 924 909 579 965 482 832 C 385 699 423 298 520 165 C 617 32 932 37 1089 88 C 1246 139 1612 320 1612 485"></animate>
</path><path d="M 1622.88 485 C 1622.88 660.896 1252.22 813.979 1084.65 868.285 C 917.083 922.59 608.978 956.82 506.04 813.904 C 403.103 670.987 385.464 285.458 489.075 142.541 C 592.687 -0.375792 940.736 -26.5488 1108.31 28.0832 C 1275.88 82.7152 1622.88 309.104 1622.88 485" fill="url(#lg-0.9634339156589034)" opacity="0.4">
  <animate attributeName="d" dur="10s" repeatCount="indefinite" keyTimes="0;0.3333333333333333;0.6666666666666666;1" calcmod="spline" keySplines="0.3 0.1 0.7 0.9;0.3 0.1 0.7 0.9;0.3 0.1 0.7 0.9" begin="-4s" values="M 1602 485 C 1602 671 1263 816 1086 873 C 909 930 514 1039 405 888 C 296 737 308 241 417 90 C 526 -61 934 -38 1111 20 C 1288 78 1602 299 1602 485;M 1520 485 C 1520 660 1279 899 1112 953 C 945 1007 585 974 482 832 C 379 690 365 269 468 127 C 571 -15 957 -71 1123 -17 C 1289 37 1520 310 1520 485;M 1633 485 C 1633 656 1247 813 1084 866 C 921 919 655 917 555 778 C 455 639 423 307 524 168 C 625 29 944 -21 1107 32 C 1270 85 1633 314 1633 485;M 1602 485 C 1602 671 1263 816 1086 873 C 909 930 514 1039 405 888 C 296 737 308 241 417 90 C 526 -61 934 -38 1111 20 C 1288 78 1602 299 1602 485"></animate>
</path><path d="M 1550.07 485 C 1550.07 657.632 1253.39 828.291 1089.08 881.944 C 924.778 935.597 603.709 956.514 502.056 816.534 C 400.403 676.555 365.896 266.896 467.549 126.917 C 569.202 -13.0624 951.798 -49.6593 1116.1 3.66709 C 1280.41 56.9935 1550.07 312.368 1550.07 485" fill="url(#lg-0.9634339156589034)" opacity="0.4">
  <animate attributeName="d" dur="10s" repeatCount="indefinite" keyTimes="0;0.3333333333333333;0.6666666666666666;1" calcmod="spline" keySplines="0.3 0.1 0.7 0.9;0.3 0.1 0.7 0.9;0.3 0.1 0.7 0.9" begin="-4s" values="M 1608 485 C 1608 661 1248 800 1081 855 C 914 910 632 939 529 797 C 426 655 376 277 479 135 C 582 -7 939 -18 1106 36 C 1273 90 1608 309 1608 485;M 1592 485 C 1592 671 1279 863 1102 921 C 925 979 509 1043 399 892 C 289 741 308 241 418 90 C 528 -61 919 8 1096 66 C 1273 124 1592 299 1592 485;M 1522 485 C 1522 656 1256 842 1093 895 C 930 948 590 965 489 826 C 388 687 361 262 462 123 C 563 -16 958 -65 1121 -12 C 1284 41 1522 314 1522 485;M 1608 485 C 1608 661 1248 800 1081 855 C 914 910 632 939 529 797 C 426 655 376 277 479 135 C 582 -7 939 -18 1106 36 C 1273 90 1608 309 1608 485"></animate>
</path><path d="M 1549.91 485 C 1549.91 646.653 1249.56 852.728 1095.9 902.728 C 942.25 952.728 607.174 940.68 511.848 810.354 C 416.521 680.027 450.16 313.528 544.813 183.202 C 639.466 52.8752 939.736 23.8335 1093.39 73.8335 C 1247.04 123.834 1549.91 323.347 1549.91 485" fill="url(#lg-0.9634339156589034)" opacity="0.4">
  <animate attributeName="d" dur="10s" repeatCount="indefinite" keyTimes="0;0.3333333333333333;0.6666666666666666;1" calcmod="spline" keySplines="0.3 0.1 0.7 0.9;0.3 0.1 0.7 0.9;0.3 0.1 0.7 0.9" begin="-4s" values="M 1494 485 C 1494 648 1228 782 1073 832 C 918 882 655 907 559 776 C 463 645 467 327 563 196 C 659 65 933 40 1088 90 C 1243 140 1494 322 1494 485;M 1536 485 C 1536 640 1224 796 1077 844 C 930 892 588 946 497 821 C 406 696 429 290 520 165 C 611 40 930 77 1077 125 C 1224 173 1536 330 1536 485;M 1577 485 C 1577 646 1260 887 1107 937 C 954 987 584 957 489 827 C 394 697 442 307 536 177 C 630 47 943 16 1096 66 C 1249 116 1577 324 1577 485;M 1494 485 C 1494 648 1228 782 1073 832 C 918 882 655 907 559 776 C 463 645 467 327 563 196 C 659 65 933 40 1088 90 C 1243 140 1494 322 1494 485"></animate>
</path></g>
</svg>